<svg xmlns="http://www.w3.org/2000/svg" viewBox="0 0 139.69 139.75"><defs><style>.cls-1{fill:#fff;}</style></defs><g id="Capa_2" data-name="Capa 2"><g id="Capa_1-2" data-name="Capa 1"><g id="jGzR72.tif"><path class="cls-1" d="M49.94,69.54q0-26.31,0-52.62C49.94,6.19,56.09,0,66.77,0,69,0,71.26,0,73.5,0c9.87.06,16.24,6.37,16.25,16.24q0,37.67,0,75.31,0,15.72,0,31.42c0,10.41-6.21,16.61-16.59,16.64h-7C56.26,139.56,50,133.32,50,123.4,49.91,105.44,49.94,87.49,49.94,69.54Z"/><path class="cls-1" d="M139.68,79.77q0,21.45,0,42.89c0,10.89-6.09,17-17,17h-6.49c-10.05-.05-16.31-6.3-16.32-16.39q0-41.15,0-82.29a51.49,51.49,0,0,1,.23-7.46c1.18-7.93,5.83-12.52,13.78-13.34a57.19,57.19,0,0,1,11.7,0c8.84.91,14.07,7,14.09,16C139.71,50.68,139.68,65.23,139.68,79.77Z"/><path class="cls-1" d="M0,99.62C0,91.81,0,84,0,76.19,0,66.31,6.36,59.94,16.2,59.9a73.85,73.85,0,0,1,10.21.26c8.3,1.15,13.34,6.91,13.4,15.32q.15,24.31,0,48.61c-.06,8.6-5.32,14.41-13.93,15.34a54.79,54.79,0,0,1-11.94,0C5.13,138.44.08,132.5,0,123.55,0,115.58,0,107.6,0,99.62Z"/></g></g></g></svg>