<svg xmlns="http://www.w3.org/2000/svg" viewBox="0 0 62.32 62.33"><defs><style>.cls-1{fill:#fff;}</style></defs><g id="Capa_2" data-name="Capa 2"><g id="Capa_1-2" data-name="Capa 1"><g id="_7yrCwO.tif" data-name=" 7yrCwO.tif"><g id="Grupo_20" data-name="Grupo 20"><path id="Trazado_112" data-name="Trazado 112" class="cls-1" d="M62.31,30.34A31,31,0,1,1,62.17,28C62.24,28.78,62.29,29.56,62.31,30.34ZM31.12,34.08c2.7,0,5.4,0,8.1,0a6.39,6.39,0,0,0,1.63-.21,2.81,2.81,0,0,0,1.92-3.09c-.31-1.74-1.41-2.56-3.46-2.56q-8.14,0-16.29,0a6.39,6.39,0,0,0-1.45.17,2.91,2.91,0,0,0,1.16,5.68c2.8,0,5.59,0,8.39,0Z"/></g></g></g></g></svg>