<svg xmlns="http://www.w3.org/2000/svg" viewBox="0 0 67.67 67.67"><defs><style>.cls-1{fill:#fff;}</style></defs><g id="Capa_2" data-name="Capa 2"><g id="Capa_1-2" data-name="Capa 1"><path id="Trazado_128" data-name="Trazado 128" class="cls-1" d="M33.83,0A33.84,33.84,0,1,0,67.67,33.83h0A33.84,33.84,0,0,0,33.83,0ZM57.51,26.27,38.4,45.42a2.79,2.79,0,0,1-4.15.28l-6.37-6.37-3.79,3.79a2.65,2.65,0,0,1-2,1.06A2.69,2.69,0,0,1,20,43.4c-3.3-3.31-6.63-6.61-9.92-9.93a2.57,2.57,0,1,1,3.66-3.59q3.81,3.82,7.6,7.67c.58.58.57.59,1.17,0l1.82-1.82A2.56,2.56,0,1,1,27.75,32l.14.14L40.08,19.87a2.83,2.83,0,0,1,2.37-1,2.28,2.28,0,0,1,2,1.38A2.46,2.46,0,0,1,44.16,23a10.21,10.21,0,0,1-1,1L31.48,35.7l4.11,4.15c.58.58.57.59,1.17,0L54.38,22.16a2.85,2.85,0,0,1,2.37-1,2.28,2.28,0,0,1,2,1.38,2.47,2.47,0,0,1-.32,2.69,11.58,11.58,0,0,1-1,1Z"/></g></g></svg>