<svg xmlns="http://www.w3.org/2000/svg" viewBox="0 0 63.22 63.22"><defs><style>.cls-1{fill:#fafafa;}</style></defs><g id="Capa_2" data-name="Capa 2"><g id="Capa_1-2" data-name="Capa 1"><path id="Trazado_114" data-name="Trazado 114" class="cls-1" d="M31.61,0A31.61,31.61,0,1,0,63.22,31.61h0A31.61,31.61,0,0,0,31.61,0Zm4.64,32.13,8.84,8.78a3,3,0,0,1,.78,3.58A2.88,2.88,0,0,1,42,45.85a2.71,2.71,0,0,1-.37-.21,13.88,13.88,0,0,1-1.55-1.42l-8.59-8.31.1-.23c-.21.19-.43.36-.62.56L22.29,45a3.1,3.1,0,0,1-3.64.79,3,3,0,0,1-1.27-4,3.11,3.11,0,0,1,.6-.79c1.14-1.19,2.33-2.34,3.51-3.5L27,32.09c.15-.15.29-.32.37-.41-2.07-2.14-4.07-4.22-6.1-6.29-1.07-1.09-2.18-2.14-3.25-3.23a3.06,3.06,0,0,1-.52-3.87,3,3,0,0,1,4.2-.73,3.15,3.15,0,0,1,.54.49q4.39,4.43,8.76,8.87a7,7,0,0,1,.58.81,13.61,13.61,0,0,1,.95-1.16l8.4-8.5a3,3,0,0,1,3-.94,2.92,2.92,0,0,1,1.24,5c-.74.8-1.56,1.53-2.32,2.31-2.33,2.4-4.66,4.82-7,7.29,0,0,.2.23.38.41Z"/></g></g></svg>