<svg xmlns="http://www.w3.org/2000/svg" viewBox="0 0 18.37 20.96"><defs><style>.cls-1{fill:#fff;}</style></defs><g id="Capa_2" data-name="Capa 2"><g id="Capa_1-2" data-name="Capa 1"><g id="cGEtI4.tif"><g id="J4lnpT.tif"><g id="Grupo_23" data-name="Grupo 23"><path id="Trazado_118" data-name="Trazado 118" class="cls-1" d="M0,7.86H17.92c.44,0,.44,0,.44.42V18.74A2,2,0,0,1,16.53,21a2.67,2.67,0,0,1-.4,0H2.2A2,2,0,0,1,0,19.12a2,2,0,0,1,0-.35V7.86ZM8.16,15c-.54-.57-1-1.1-1.55-1.62a2.85,2.85,0,0,0-.6-.5.9.9,0,0,0-1.23.3A1,1,0,0,0,5,14.59c.79.8,1.59,1.59,2.38,2.38a2.11,2.11,0,0,0,.23.19.92.92,0,0,0,1.13,0,5.59,5.59,0,0,0,.63-.57l4-4a1,1,0,0,0,.19-1.41,1.05,1.05,0,0,0-.34-.29,1,1,0,0,0-1.27.31c-1.24,1.23-2.47,2.47-3.79,3.8Z"/><path id="Trazado_119" data-name="Trazado 119" class="cls-1" d="M0,6.54c0-.73,0-1.42,0-2.1A2,2,0,0,1,2.16,2.61h0q.7,0,1.41,0c.27,0,.33-.1.33-.35A10.14,10.14,0,0,1,4,1,1.25,1.25,0,0,1,6.48,1a10.69,10.69,0,0,1,.07,1.27c0,.21.06.31.3.31q2.34,0,4.68,0c.22,0,.28-.08.28-.29A11,11,0,0,1,11.9.93,1.15,1.15,0,0,1,13.12,0a1.15,1.15,0,0,1,1.23,1,10.29,10.29,0,0,1,.05,1.24c0,.26.1.34.35.34.61,0,1.22,0,1.83,0A1.91,1.91,0,0,1,18.35,4.6c0,.57,0,1.14,0,1.7,0,.19-.08.26-.26.24H0Z"/></g></g></g></g></g></svg>