<svg xmlns="http://www.w3.org/2000/svg" viewBox="0 0 24.73 21.94"><defs><style>.cls-1{fill:#fff;}</style></defs><g id="Capa_2" data-name="Capa 2"><g id="Capa_1-2" data-name="Capa 1"><g id="wpV170.tif"><g id="Grupo_25" data-name="Grupo 25"><path id="Trazado_123" data-name="Trazado 123" class="cls-1" d="M11.06,21.94H2.33A2.51,2.51,0,0,1,1,21.59,2,2,0,0,1,0,19.82C0,16,0,12.18,0,8.36a.52.52,0,0,1,0-.11H19.24c0,.59,0,1.18,0,1.76,0,.1-.13.21-.21.3l-6.35,6.31a3.47,3.47,0,0,0-1,1.73c-.18.85-.43,1.68-.61,2.53A6.24,6.24,0,0,0,11.06,21.94ZM8.28,13.72h3a1,1,0,0,0,.13-2.07H5.22a1,1,0,0,0-.94.53,1,1,0,0,0,.38,1.4,1,1,0,0,0,.61.14Zm-1.37,2H5.19a1,1,0,0,0-1.05,1v0a1,1,0,0,0,1,1h0c1.14,0,2.29,0,3.43,0a1,1,0,0,0,1-.65A1,1,0,0,0,9,15.84a1.06,1.06,0,0,0-.43-.08c-.55,0-1.11,0-1.67,0Z"/><path id="Trazado_124" data-name="Trazado 124" class="cls-1" d="M19.23,6.83H0A10,10,0,0,1,.18,4.15,2,2,0,0,1,2.23,2.74c.62,0,1.25,0,1.92,0V1.46A1.38,1.38,0,0,1,5.43,0,1.36,1.36,0,0,1,6.87,1.29c0,.46,0,.93,0,1.42h5.52c0-.41,0-.83,0-1.25A1.31,1.31,0,0,1,13.53,0a1.3,1.3,0,0,1,1.54,1,.83.83,0,0,1,0,.22c0,.48,0,1,0,1.49H17a2.51,2.51,0,0,1,1.31.34,2,2,0,0,1,.94,1.67C19.26,5.43,19.23,6.11,19.23,6.83Z"/><path id="Trazado_125" data-name="Trazado 125" class="cls-1" d="M18.92,12.4l3,3-.21.22-5.11,5.12a2,2,0,0,1-1,.57c-.75.17-1.5.38-2.25.57s-1.14-.25-1-1,.36-1.49.57-2.22a1.78,1.78,0,0,1,.38-.75C15.23,16.07,17.08,14.23,18.92,12.4Z"/><path id="Trazado_126" data-name="Trazado 126" class="cls-1" d="M20.08,11.41c.41-.5.86-1,1.32-1.44a1.52,1.52,0,0,1,2,0,8,8,0,0,1,1,1,1.53,1.53,0,0,1,0,1.88c-.43.53-.92,1-1.4,1.52Z"/></g></g></g></g></svg>