<svg xmlns="http://www.w3.org/2000/svg" viewBox="0 0 199.43 159.51"><defs><style>.cls-1{fill:#fff;}</style></defs><g id="Capa_2" data-name="Capa 2"><g id="Capa_1-2" data-name="Capa 1"><g id="cPyxi7.tif"><path class="cls-1" d="M99.73,159.5H50.09c-7.56,0-10.78-3.57-10.06-11.1,2.2-23,19.42-38.63,42.57-38.67,11.64,0,23.28-.06,34.92,0,18.54.11,33.8,10.83,39.67,28.17a50.58,50.58,0,0,1,2.24,12.68c.39,5.57-3.3,8.87-9.31,8.89-12.56,0-25.12,0-37.67,0Z"/><path class="cls-1" d="M69.83,69.79c0-16.19,13.65-29.88,29.88-29.89a30.27,30.27,0,0,1,29.88,29.89,29.88,29.88,0,0,1-59.76,0Z"/><path class="cls-1" d="M126.83,99.32c10.23-10.07,14-22.19,12.37-36.83,3.43-.77,6.9-2,10.45-2.25,8.11-.62,16.28-1.11,24.33.62,14,3,25.13,15.45,25.45,31.94A6.42,6.42,0,0,1,193,99.6c-21.87.05-43.74,0-65.61,0C127.27,99.59,127.21,99.52,126.83,99.32Z"/><path class="cls-1" d="M72.69,99.64H69.84q-30.81,0-61.62,0C2,99.64-.59,96.72.11,90.58c1.8-16,11.45-27.23,26.54-29.85a72.48,72.48,0,0,1,29.22.58,9.71,9.71,0,0,1,3,1.13,2.66,2.66,0,0,1,1.2,2C58.7,77.68,62.52,89.13,72,98.65A9.47,9.47,0,0,1,72.69,99.64Z"/><path class="cls-1" d="M69.69,24.88c0,13.54-11.57,25-25,24.87A25.25,25.25,0,0,1,19.91,24.86c0-13.41,11.61-25,25-24.85S69.73,11.55,69.69,24.88Z"/><path class="cls-1" d="M134.71,24.88c-.06-13.4,11.37-24.77,25-24.88,13.23-.1,24.78,11.49,24.78,24.84a25.27,25.27,0,0,1-25,24.91C146.14,49.76,134.77,38.35,134.71,24.88Z"/></g></g></g></svg>