<svg xmlns="http://www.w3.org/2000/svg" viewBox="0 0 64.37 64.37"><defs><style>.cls-1{fill:#fff;}</style></defs><g id="Capa_2" data-name="Capa 2"><g id="Capa_1-2" data-name="Capa 1"><path id="Trazado_113" data-name="Trazado 113" class="cls-1" d="M32.18,0A32.19,32.19,0,1,0,64.37,32.18,32.18,32.18,0,0,0,32.18,0ZM51.61,22.94c-.76.85-1.6,1.65-2.41,2.47L29.82,44.84a3,3,0,0,1-3.1,1,3.24,3.24,0,0,1-1.35-.76q-5.43-5.35-10.81-10.79a2.84,2.84,0,0,1-.65-3.37,2.64,2.64,0,0,1,2.41-1.51,3.2,3.2,0,0,1,2.25,1q4.09,4.15,8.22,8.3c.64.65.63.65,1.27,0q9.6-9.6,19.18-19.23a3.12,3.12,0,0,1,2.5-1.09,2.5,2.5,0,0,1,2.3,1.5,2.62,2.62,0,0,1-.43,3Z"/></g></g></svg>