<svg xmlns="http://www.w3.org/2000/svg" viewBox="0 0 61.2 61.1"><defs><style>.cls-1{fill:#fff;}</style></defs><g id="Capa_2" data-name="Capa 2"><g id="Capa_1-2" data-name="Capa 1"><g id="LIHBn5.tif"><g id="Grupo_13" data-name="Grupo 13"><path id="Trazado_109" data-name="Trazado 109" class="cls-1" d="M0,31.1A30.43,30.43,0,0,1,29.76,0h.58A30.22,30.22,0,0,1,61.18,29.62c0,.11,0,.23,0,.35A30.2,30.2,0,0,1,31.94,61.08c-.39,0-.78,0-1.17,0C14.25,61.27.64,48.64,0,31.1Zm26.82-.44h0c0-2.55.06-5.11,0-7.66a3.77,3.77,0,0,0-5.17-3.65c-1.66.52-2.51,1.83-2.51,3.95q0,7.23,0,14.46a8.54,8.54,0,0,0,.12,1.33,3.83,3.83,0,0,0,7.56-1.15c.05-2.42,0-4.85,0-7.28ZM42,30.57h.12c0-2.4,0-4.79,0-7.19a5.47,5.47,0,0,0-.41-2.22,3.7,3.7,0,0,0-4.07-2,3.52,3.52,0,0,0-3.16,3.54c-.07,5.24,0,10.48,0,15.71a3.49,3.49,0,0,0,2,3.17,3.68,3.68,0,0,0,5.06-1.27A3.78,3.78,0,0,0,42,39c.19-2.8,0-5.61,0-8.42Z"/></g></g></g></g></svg>