<svg xmlns="http://www.w3.org/2000/svg" viewBox="0 0 23.56 20.9"><defs><style>.cls-1{fill:#fff;}</style></defs><g id="Capa_2" data-name="Capa 2"><g id="Capa_1-2" data-name="Capa 1"><g id="cGEtI4.tif"><g id="VDrdvm.tif"><g id="Grupo_24" data-name="Grupo 24"><path id="Trazado_120" data-name="Trazado 120" class="cls-1" d="M16.81,7.87a6.92,6.92,0,0,0-6,5.17,7,7,0,0,0,2.68,7.86H2.21a2,2,0,0,1-2-1.33,2.17,2.17,0,0,1-.13-.76Q0,13.41.05,8a1,1,0,0,1,0-.16Z"/><path id="Trazado_121" data-name="Trazado 121" class="cls-1" d="M23.56,15a5.88,5.88,0,1,1-5.87-5.87h0A5.89,5.89,0,0,1,23.56,15Zm-5.91.66h2.54c.49,0,.76-.23.77-.65s-.27-.66-.78-.67h-5c-.44,0-.68.19-.74.54a.64.64,0,0,0,.69.78Z"/><path id="Trazado_122" data-name="Trazado 122" class="cls-1" d="M4,2.62c0-.45,0-.86,0-1.27A1.28,1.28,0,0,1,5.18,0,1.2,1.2,0,0,1,5.8.13a1.18,1.18,0,0,1,.76,1.16c0,.43,0,.86,0,1.31H11.8c0-.43,0-.84,0-1.25A1.28,1.28,0,0,1,13,0a1.26,1.26,0,0,1,.63.13,1.16,1.16,0,0,1,.75,1.15c0,.43,0,.87,0,1.34.62,0,1.21,0,1.79,0A3.39,3.39,0,0,1,17.39,3a1.83,1.83,0,0,1,.92,1.66c0,.62,0,1.24,0,1.88H0a21.44,21.44,0,0,1,.13-2.4,1.89,1.89,0,0,1,2-1.47C2.73,2.61,3.32,2.62,4,2.62Z"/></g></g></g></g></g></svg>