<svg xmlns="http://www.w3.org/2000/svg" viewBox="0 0 61.57 52.65"><g id="Capa_2" data-name="Capa 2"><g id="Capa_1-2" data-name="Capa 1"><g id="HWwF1Y.tif"><g id="Grupo_40" data-name="Grupo 40"><path id="Trazado_127" data-name="Trazado 127" d="M15.34,21.93H56.81c2.74,0,4.56,1.56,4.74,4,.2,2.77-1.72,4.72-4.67,4.72q-20,0-40.06,0H15.09a14.53,14.53,0,0,0,1,1.22l13,12.8a4.59,4.59,0,0,1,1.44,5A4.4,4.4,0,0,1,25,52.42a4.72,4.72,0,0,1-1.18-.61,15.54,15.54,0,0,1-1.7-1.55L2.2,30.48C.52,28.81-.65,27,.4,24.53a5.27,5.27,0,0,1,1.11-1.61Q12.24,12.18,23,1.49A4.65,4.65,0,0,1,28.34.42a4.41,4.41,0,0,1,2.4,4.13A5.11,5.11,0,0,1,29.05,7.9q-6.54,6.45-13,12.91c-.27.27-.53.56-.8.83Z"/></g></g></g></g></svg>