<svg xmlns="http://www.w3.org/2000/svg" viewBox="0 0 179.54 159.64"><defs><style>.cls-1{fill:#fff;}</style></defs><g id="Capa_2" data-name="Capa 2"><g id="Capa_1-2" data-name="Capa 1"><g id="cGEtI4.tif"><path class="cls-1" d="M19.88,89.7c-3.07,0-5.88,0-8.69,0-5.11,0-9.13-2.51-10.55-6.48-1.55-4.36-.27-8.56,3.68-12l77.79-68C87-1,92.48-1.08,97.19,3.05q39,34.21,78,68.45c5.81,5.1,5.77,12.24-.29,16.19a15.56,15.56,0,0,1-6.55,1.93,79.43,79.43,0,0,1-8.78.08v2.81c.12,14.55.26,29.1.32,43.65,0,3.81-.12,7.64-.4,11.44-.5,6.87-5.43,11.72-12.39,11.88-8.32.2-16.65.22-25,0-7.42-.19-12.32-5.54-12.38-13.19-.06-8.56,0-17.12,0-25.69,0-7.17-3.74-10.9-10.94-10.94q-9.12,0-18.23,0c-7,0-10.84,3.8-10.88,10.81,0,8.32-.23,16.64.06,24.94S64,159.89,55.7,159.6c-7.32-.26-14.66-.24-22,0-7.92.25-14-5.73-13.91-13.86.21-17.54.06-35.09.06-52.63Z"/></g></g></g></svg>