<svg xmlns="http://www.w3.org/2000/svg" viewBox="0 0 199.51 159.51"><defs><style>.cls-1{fill:#fff;}</style></defs><g id="Capa_2" data-name="Capa 2"><g id="Capa_1-2" data-name="Capa 1"><g id="nctOgA.tif"><path class="cls-1" d="M149.77,80c-3.82-.35-7.36-.31-10.72-1.07-9.5-2.14-15.75-8-18.2-17.5-2.57-9.86.1-18.4,7.56-25.33a4.05,4.05,0,0,0,1.52-3.8C128.5,14.88,142-.14,159.41,0c18.31.15,31.14,14.18,30,32.46a3.66,3.66,0,0,0,1.31,3.4c7.78,7.09,10.47,15.89,7.67,26-2.73,9.82-9.55,15.52-19.55,17.27-2.92.51-5.92.53-9.25.8v2.77q0,33.06,0,66.12c0,7.79-5.86,12.29-13.1,10.22-4.07-1.16-6.66-4.82-6.72-9.71-.07-6.07,0-12.15,0-18.22V80Z"/><path class="cls-1" d="M59.82,99.59H21.15C13.63,99.58,10,96,10,88.41c0-6,0-12,0-18,0-6.75,4-10.67,10.72-10.67q39.17,0,78.33,0c6.62,0,10.59,3.9,10.66,10.49.06,6.32.07,12.63,0,19-.07,6.55-3.92,10.33-10.47,10.35C86.09,99.61,73,99.59,59.82,99.59Z"/><path class="cls-1" d="M89.86,129.62h-60v2.7c0,5.82.08,11.64-.05,17.46-.12,4.91-3,8.39-7.4,9.41-4.64,1.07-9.08-.62-11-4.64a14.89,14.89,0,0,1-1.3-6c-.16-6.22-.06-12.45-.06-18.7a34.3,34.3,0,0,1-4.35-1.22A9.8,9.8,0,0,1,.16,117.93a9.68,9.68,0,0,1,8.78-8.2c.5,0,1,0,1.5,0q49.4,0,98.8,0c7.48,0,12.08,6.09,9.92,13.14-1.36,4.42-4.68,6.47-9.44,6.79v15.19c0,1.58,0,3.16,0,4.74-.23,6-4.15,9.92-9.91,9.92s-9.77-3.93-9.89-9.93c-.12-5.65,0-11.3,0-17Z"/></g></g></g></svg>