<svg xmlns="http://www.w3.org/2000/svg" viewBox="0 0 120.67 128.02"><defs><style>.cls-1{fill:#fff;}</style></defs><g id="Capa_2" data-name="Capa 2"><g id="Capa_1-2" data-name="Capa 1"><g id="Grupo_10" data-name="Grupo 10"><path id="Trazado_107" data-name="Trazado 107" class="cls-1" d="M46.5,45.48c5.59,0,11.18-.07,16.74,0,1.86,0,2.34-.54,2.29-2.35-.12-4.82,0-9.64,0-14.46a9.83,9.83,0,0,1,6.2-10,10,10,0,0,1,11,2.57C94,32.71,105.54,44,116.87,55.54a10.81,10.81,0,0,1,1.23,15.23A9.92,9.92,0,0,1,116.84,72C105.5,83.52,94,94.88,82.61,106.28a9.39,9.39,0,0,1-11.28,2.47,9.88,9.88,0,0,1-5.84-9.82c0-4.82-.07-9.64,0-14.46,0-1.81-.49-2.37-2.33-2.35-10.34.08-20.68.06-31,0a38.18,38.18,0,0,1-5-.42A7.66,7.66,0,0,1,19.93,74c-.19-6.57-.16-13.16-.12-19.73a8.79,8.79,0,0,1,8.77-8.8,6.78,6.78,0,0,1,.9,0C35.17,45.46,40.84,45.48,46.5,45.48Z"/><path id="Trazado_108" data-name="Trazado 108" class="cls-1" d="M47.92.09A8.41,8.41,0,0,1,55,8.64a8.51,8.51,0,0,1-7,8.68c-6.63.43-13.28.51-19.92.61a8.73,8.73,0,0,0-8.78,5,15.51,15.51,0,0,0-1.08,6c-.1,11.71-.05,23.41-.05,35.11V99.15a9.23,9.23,0,0,0,4.86,9.39A15.6,15.6,0,0,0,29,109.81c5.59.17,11.18,0,16.75.08a8.51,8.51,0,0,1,8.3,5.09,9,9,0,0,1-1.14,9.72,8.6,8.6,0,0,1-7,3.29c-7.27,0-14.59.2-21.79-.37A26.32,26.32,0,0,1,.8,106.24a45.39,45.39,0,0,1-.76-8q-.08-35,0-70a28.23,28.23,0,0,1,5.68-17.8A25.07,25.07,0,0,1,25.24,0"/></g></g></g></svg>