<svg xmlns="http://www.w3.org/2000/svg" viewBox="0 0 139.5 159.51"><defs><style>.cls-1{fill:#fff;}</style></defs><g id="Capa_2" data-name="Capa 2"><g id="Capa_1-2" data-name="Capa 1"><g id="_7EY7wt.tif" data-name="7EY7wt.tif"><path class="cls-1" d="M69.64,159.5H10.78c-7.71,0-11.3-4.15-10.72-11.84,1-13.73,5.75-25.84,15.37-35.83S36.72,96,50.41,95.32a383.61,383.61,0,0,1,39.11,0c21.82,1.11,42.17,18.21,47.58,39.34a100.63,100.63,0,0,1,2.32,14c.71,6.53-3.36,10.87-9.92,10.87Q99.56,159.52,69.64,159.5Z"/><path class="cls-1" d="M69.77,79.69a40,40,0,0,1-39.89-39.8C29.71,18.25,47.9,0,69.71,0s39.94,18.1,39.9,39.83A40,40,0,0,1,69.77,79.69Z"/></g></g></g></svg>