<svg xmlns="http://www.w3.org/2000/svg" viewBox="0 0 65.72 65.72"><defs><style>.cls-1{fill:#fff;}</style></defs><g id="Capa_2" data-name="Capa 2"><g id="Capa_1-2" data-name="Capa 1"><g id="Kp3ifa.tif"><g id="Grupo_21" data-name="Grupo 21"><path id="Trazado_115" data-name="Trazado 115" class="cls-1" d="M0,33.51a32.86,32.86,0,1,1,33.5,32.2H33C15.29,65.91.68,52.34,0,33.51Zm29.72-9.16c0,2.71,0,5.42,0,8.13a3.51,3.51,0,0,0,1.77,3.24C34,37.3,36.41,39,38.86,40.61c1.66,1.09,3.29,2.24,5,3.23a2.82,2.82,0,0,0,3.88-.93l.06-.09a2.72,2.72,0,0,0-.49-3.8l-.05,0a8.46,8.46,0,0,0-1-.85C43.16,36.07,40.1,34,37,32a1.89,1.89,0,0,1-1-1.84q.06-7,0-14c0-2.6-1.75-4.14-3.95-3.6a3.3,3.3,0,0,0-2.35,3.56c0,2.75,0,5.49,0,8.23Z"/></g></g></g></g></svg>