<svg xmlns="http://www.w3.org/2000/svg" viewBox="0 0 339.17 554.97"><defs><style>.cls-1{fill:#105289;}</style></defs><title>Azul</title><g id="Capa_2" data-name="Capa 2"><g id="Layer_1" data-name="Layer 1"><path class="cls-1" d="M313.15,330.18h-12v2a5.36,5.36,0,0,0,.61,1.25c3.42,5,15,3.9,15,11.23,0,3-1.9,2.9-1.9,4.44,0,.43.51.63,1.16.63.91,0,7.79-1.9,7.79-7.63,0-5-7.45-10.42-10.66-11.89"/><polygon class="cls-1" points="296.69 127.76 296.69 127.76 296.69 127.79 296.69 127.76"/><path class="cls-1" d="M334.34,390.11v1a155.48,155.48,0,0,1-21.78,78.35L288,445.62c-21.16,42.27-65.66,71.64-116.89,72.17a5.51,5.51,0,0,1,1.8.71c5.17,3.37,4,14.69,11.6,14.69,3.13,0,3-1.86,4.58-1.86.47,0,.66.5.66,1.13,0,.87-2,7.6-7.88,7.6-5.17,0-10.8-7.3-12.3-10.43V517.8H168a5.65,5.65,0,0,0-1.81.71c-5.17,3.37-4.06,14.69-11.61,14.69-3.12,0-3-1.86-4.6-1.86-.44,0-.63.5-.63,1.13,0,.87,2,7.6,7.87,7.6,5.17,0,10.8-7.3,12.3-10.43v3.19a12.71,12.71,0,0,1-5.66,6.21c0,7.24,4.52,10.65,5.49,11.23-60.84-.11-114.23-32.63-142.7-80.75l24.66-23.95a124.11,124.11,0,0,1-13.15-54.79v-59a6.25,6.25,0,0,1-.71,1.71c-3.44,5-15,3.91-15,11.24,0,3,1.9,2.9,1.9,4.43,0,.43-.48.64-1.14.64-.91,0-7.79-1.92-7.79-7.65,0-5,7.47-10.45,10.68-11.9H38.14v-1.47a5.64,5.64,0,0,0-.71-1.72c-3.44-5-15-3.92-15-11.25,0-3,1.9-2.89,1.9-4.43,0-.43-.48-.63-1.14-.63-.91,0-7.79,1.89-7.79,7.64,0,5,7.35,10.34,10.6,11.85h-3.3a12.7,12.7,0,0,1-6.24-5.42c-7.79,0-11.27,4.79-11.56,5.42V170.8l33.29,32.34V203H167.69a6,6,0,0,1-1.48-.61c-5.15-3.35-4-14.62-11.57-14.62-3.1,0-3,1.83-4.55,1.83-.45,0-.66-.49-.66-1.11,0-.88,2-7.59,7.87-7.59,5.15,0,10.74,7.3,12.24,10.41V203h1.86a5.64,5.64,0,0,0,1.48-.61c5.17-3.35,4-14.62,11.56-14.62,3.13,0,3,1.83,4.56,1.83.46,0,.67-.49.67-1.11,0-.88-2-7.59-7.87-7.59-5.15,0-10.74,7.28-12.24,10.39v-3.18A12.55,12.55,0,0,1,175.2,182c0-7.22-4.5-10.62-5.49-11.18H334.29L301.08,203h.06V328.32a5.86,5.86,0,0,1,.63-1.37c3.44-5,15.05-3.91,15.05-11.25,0-3-1.9-2.89-1.9-4.42,0-.44.51-.64,1.16-.64.89,0,7.79,1.91,7.79,7.64,0,5-7.47,10.41-10.68,11.89h3.21a12.72,12.72,0,0,1,6.37,5.47c7.9,0,11.36-5,11.57-5.46h-17.9a12.72,12.72,0,0,0,6.37-5.47c8,0,11.44,5.05,11.59,5.47h-.11v59.93M169.52,550.32V532.81a12.52,12.52,0,0,0,5.66,6.22c0,7.8-5.24,11.16-5.66,11.32M4.83,330.23H22.77a12.61,12.61,0,0,0-6.35,5.48c-8,0-11.44-5-11.59-5.48M169.54,170.71v17.46a12.61,12.61,0,0,0-5.63-6.19c0-7.77,5.21-11.11,5.63-11.27m0-23.31c62,0,113.16,8.14,120.84,18.68H48.75c7.72-10.54,58.86-18.68,120.83-18.68M49,148.88c-3.27.24-6.25-3.57-6.65-8.5s1.9-9.13,5.17-9.37,6.27,3.57,6.67,8.5-1.92,9.13-5.19,9.37M67.4,107.74a12.41,12.41,0,0,0,2.79-5.32,16,16,0,0,0,5.06,3.75,17.11,17.11,0,0,0,6.29,1.54c-7.19,1-13.71,2.12-19.37,3.33a12.58,12.58,0,0,0,5.23-3.3M103.17,138c-4.91,1.53-10-1.59-11.41-6.93a10.46,10.46,0,0,1,4.58-11.69,8.11,8.11,0,0,1,3.71-1.15h.48a9.36,9.36,0,0,1,9,7.32c1.42,5.35-1.43,10.92-6.33,12.46M89.29,106.41a15.51,15.51,0,0,0,9.49-12.65,17.6,17.6,0,0,0,.13-2.18c0-1.36.46-2.87,1.73-3a3.21,3.21,0,0,1,3,2.48,16.85,16.85,0,0,0,1.1,3,17.26,17.26,0,0,0,12.55,10.07c-10.42.72-20.32,1.64-29.33,2.76l1.33-.48m42.42-7.27a17,17,0,0,0,3.27-5,18.93,18.93,0,0,0,13,8.5c-8.06.23-16,.57-23.72,1a17,17,0,0,0,7.43-4.56m50.83,26.06c0,6-5.76,10.94-12.89,10.94s-12.9-4.89-12.9-10.94,5.79-10.82,12.92-10.82,12.89,4.89,12.89,10.93m-16.48-32a15.9,15.9,0,0,0,1.48-6.82h0c0-2.58.86-3.69,2-3.78,1.19.09,2.07,1.2,2.07,3.78h0a15.58,15.58,0,0,0,1.48,6.82,17.14,17.14,0,0,0,11,9.31q-7.18-.15-14.44-.15h-.29c-4.81,0-9.65,0-14.42.15a17.24,17.24,0,0,0,11-9.31m38.16,1a16.63,16.63,0,0,0,10.67,9.56c-7.7-.46-15.63-.8-23.72-1a18.91,18.91,0,0,0,13-8.5m37.71,43.85c-4.9,1.53-10-1.59-11.42-6.93A10.5,10.5,0,0,1,235,119.54a8.07,8.07,0,0,1,3.73-1.15h.59a9.39,9.39,0,0,1,9,7.32c1.39,5.35-1.46,10.92-6.35,12.46m-7.52-44a18.91,18.91,0,0,0,1.1-3c.42-1.42,1.77-2.63,3-2.48s1.73,1.68,1.73,3a17.6,17.6,0,0,0,.13,2.18,15.48,15.48,0,0,0,9.49,12.65c.43.17.89.32,1.33.48-9-1.12-18.9-2-29.35-2.76a17.31,17.31,0,0,0,12.53-10.1m29.53,12.14a16,16,0,0,0,5.06-3.75,11.94,11.94,0,0,0,2.79,5.32,12.26,12.26,0,0,0,5.23,3.3c-5.68-1.21-12.2-2.33-19.37-3.33a17.11,17.11,0,0,0,6.29-1.54m20.53,33.34c.4-4.93,3.4-8.74,6.65-8.5s5.59,4.44,5.19,9.37-3.38,8.74-6.65,8.5-5.59-4.45-5.19-9.37m54.7,250.21V166.08H292.4c2.43-1.5,3.76-3.33,3.76-5.73,0-2.73-1.88-5.14-5.44-7.28a28.69,28.69,0,0,0,6.39-4.89,14.38,14.38,0,0,0,.32-17.57l-.32-.39c-.08-.11-.19-.21-.27-.31s0,0,0,0l-.1-.12h0l-.15-.13h0c-.19-.19-.38-.39-.57-.55a6.28,6.28,0,0,1,.27-.59v.11c2-1.79,4.69-2.76,4.69-6a3.63,3.63,0,0,0-.74-2.15c-2.87-3.7-4.75-12.58-2-16.49.16-.27.36-.55.52-.85,4.6-5.76,1.46-9.91,4.12-16.82a25.3,25.3,0,0,1,3-5.59A34.36,34.36,0,0,1,309,77c1-1.17,1.9-2.49,2.53-2.5a8.23,8.23,0,0,0,7-3.77,6.5,6.5,0,0,0-2-8.65h0c-.1-1.12.28-2.31,1.82-3.68,5.32-4.7,10.8-4.7,11.9-8.58s-2.36-7.78.13-10.24,6.83-5.33,5.78-8c-1.33-.6-5.68-1-7.81,2.58.11-2.32-2-3.33-5-3.32,2,3.58.57,4.19-2,8.5-1.84-5.17-8.74-7-11.4-3.33,6.31.76,6.06,12.24,1.25,14.92-2.87-.44-7.49-5.71-3.72-9.76-8.9.78-8.65,9.81-10.8,12.55-.42-2.86-2.49-4.18-2.93-6.69-2.66.75-5.15,4-4.06,7a9,9,0,0,0-8.14,1.85c-.3,3.19.46,4.94,2.93,7-3.4,1-5,4.61-4.16,7,3-1.32,5.83-.06,9.44-2.63.19,2.22-4,4.07-4.86,6.49a16.87,16.87,0,0,0,4.75,2.16,5.12,5.12,0,0,0-1.5,6c1.5-2.56,7-4.11,12.43-3.08A25.09,25.09,0,0,0,297.81,84c-.17.46-.32.92-.47,1.36-.19-.31-.94-1.26-1.14-1.57l-4.89,2.6c4.2,4.8,4.68,10.67,2.38,14.43s-6.94,6.15-9.58,6.31c-3.63.22-6.45-.75-8-2.41-2.27-2.46-2.68-7.36-1.2-14a5.72,5.72,0,0,0,4.81-5.39c0-3-2.8-5.54-6.24-5.54s-6.27,2.49-6.27,5.54a5.41,5.41,0,0,0,2.36,4.34c-1.81,6.28-4.58,10.51-8.29,12.23a11.11,11.11,0,0,1-9,.12A10.46,10.46,0,0,1,246,93.35a14.12,14.12,0,0,1,6.5-13.26l-3.4-4A22,22,0,0,0,246,78.65c-2.41,2.15-3.53,2.16-3.08-.66l2.4-15.52c6.86,1.09,12.07,6.44,11.51,9.9,1.83-1.2,3.24-2.93,2.78-5.67a17.42,17.42,0,0,0,5.27.72c.91-2.4-1.26-6.08.36-7.77,1.25,4,4.35,4.39,5.91,7,2.24-1.47,3.38-5.27,1.27-7.8,3.36-.36,5.13-1.37,7-4.12-.88-3.11-2.25-4.53-5.35-5.73a5.49,5.49,0,0,0,1.47-7.62l-.12-.18c-2,1.81-4.56,1.81-6.8,3.9.08-3.32,3.82-9-2.89-14.25.38,5.24-6.84,7.13-9.46,6-2.12-4.67,1.78-13.59,7.39-11,.28-4.35-3-6.93-8-3.7.81-4.81,1.4-7.38,5.37-9.27-2.39-1.55-4.8-1.82-6.23.12.67-4-2-6.11-3.46-6.3s-4.69,1.12-5.36,5.14c-.76-2.21-3.13-2.57-5.93-1.7,3.18,2.8,2.89,5.44,2.09,10.24-3.65-4.34-7.64-2.73-8.8,1.52,6.22-1.09,7.05,8.45,3.48,12.37-2.87.42-9.16-3.24-7.09-8.16-8.15,3.33-6.42,9.7-7.43,12.91-1.45-2.58-3.9-3.23-5.23-5.47a5.48,5.48,0,0,0-1.4,7.62l.13.18c-3.35.36-5.13,1.37-7,4.11.88,3.12,2.23,4.53,5.36,5.73a5.47,5.47,0,0,0-1.53,7.58l.15.22c2.37-2.1,5.49-1.74,8-5.2,1,2-2.3,5-2.17,7.52a17.38,17.38,0,0,0,5.27.67,5.07,5.07,0,0,0,.8,6.14c.59-3.6,7.88-7.55,15.07-6.42l-2.43,15.68c-.48,2.8-1.69,2.73-3.75-.26a16.87,16.87,0,0,0-3-3.47l-4,3.53c4.73,4.18,4.75,10.52,2.68,14.93-2,4.2-5.61,7.25-9.77,7.25a10.43,10.43,0,0,1-7.66-3.45c-2.76-2.87-4.12-8-3.84-14a5.57,5.57,0,0,0,4-5.16c0-3.06-2.81-5.54-6.25-5.54s-6.26,2.48-6.26,5.54a5.43,5.43,0,0,0,3.16,4.8,23.88,23.88,0,0,1-3.12,9.93A13.32,13.32,0,0,1,187.64,98c-3.93,0-7.58-2.94-9.31-6.67-2.55-5.42-.36-12,5.85-17.44l-4-3.52a31.61,31.61,0,0,0-2.83,2.84c-2.26,2.33-4.72,3.19-5.1,0V58.82c7.57-.06,14.28,5,14.28,8.74,1.71-1.5,2.87-3.49,1.92-6.28a18.71,18.71,0,0,0,5.59,0c.55-2.6-2.34-6.14-.95-8.13,2,4,5.28,4,7.37,6.51a5.76,5.76,0,0,0,.17-8.14c-.06-.06-.11-.12-.17-.17,3.44-.82,5.08-2.12,6.56-5.23-1.48-3.12-3.12-4.41-6.56-5.24a5.76,5.76,0,0,0,.17-8.14c-.06-.06-.11-.12-.17-.17-1.77,2.16-4.43,2.49-6.42,5-.5-3.48,2.43-9.89-5.48-14.45,1.31,5.4-5.87,8.36-8.8,7.53-3-4.57-.53-14.41,5.78-12.42-.46-4.56-4.35-6.81-8.91-2.77,0-5.12.15-7.89,4-10.38-2.74-1.3-5.28-1.25-6.46,1,0-4.05-2.78-5.87-4.41-6.08h-.29C167.79.21,165,2,165,6.08c-1.18-2.22-3.72-2.27-6.48-1,3.8,2.49,4,5.26,4,10.38-4.56-4-8.44-1.79-8.93,2.77,6.33-2,8.82,7.85,5.8,12.42-2.93.83-10.13-2.13-8.82-7.53-7.89,4.56-5,11-5.48,14.45-2-2.5-4.65-2.83-6.42-5a5.76,5.76,0,0,0-.11,8.15l.17.16c-3.44.83-5.1,2.12-6.56,5.24,1.46,3.11,3.12,4.41,6.56,5.23a5.75,5.75,0,0,0-.22,8.14,1.29,1.29,0,0,0,.16.17c2.09-2.53,5.4-2.56,7.39-6.51,1.39,2-1.5,5.53-1,8.13a18.84,18.84,0,0,0,5.61,0c-1,2.79.21,4.78,1.9,6.28,0-3.78,6.71-8.8,14.28-8.74V73.13c-.35,3.23-2.84,2.37-5.08,0A33.87,33.87,0,0,0,159,70.32l-4,3.52c6.21,5.49,8.38,12,5.85,17.44C159.09,95,155.44,98,151.51,98a13.32,13.32,0,0,1-11.84-6.52,23.88,23.88,0,0,1-3.12-9.93,5.45,5.45,0,0,0,3.19-4.8c0-3.06-2.81-5.54-6.25-5.54s-6.27,2.48-6.27,5.54a5.6,5.6,0,0,0,4,5.16c.28,6-1.05,11.17-3.82,14a10.41,10.41,0,0,1-7.64,3.45c-4.18,0-7.85-3-9.81-7.25-2.07-4.41-2-10.75,2.7-14.93l-4-3.53a17.14,17.14,0,0,0-3,3.47c-2.09,3-3.3,3.06-3.78.26L99.4,61.69c7.22-1.13,14.5,2.82,15.09,6.42a5.1,5.1,0,0,0,.8-6.14,17.48,17.48,0,0,0,5.28-.67c.1-2.51-3.19-5.49-2.2-7.52,2.49,3.46,5.61,3.1,8,5.2a5.49,5.49,0,0,0-1.16-7.66l-.2-.14c3.11-1.2,4.48-2.61,5.37-5.73-1.88-2.74-3.63-3.75-7-4.11,2.13-2.53,1-6.32-1.25-7.8-1.33,2.24-3.77,2.89-5.23,5.47-1-3.21.7-9.58-7.43-12.91,2.07,4.92-4.24,8.58-7.09,8.16-3.56-3.92-2.76-13.46,3.48-12.37C104.7,17.64,100.69,16,97,20.37c-.8-4.8-1.09-7.44,2.11-10.24-2.83-.87-5.19-.51-5.93,1.7-.67-4-3.9-5.33-5.38-5.14S83.73,9,84.4,13c-1.45-1.94-3.84-1.67-6.22-.12,3.94,1.89,4.53,4.46,5.36,9.27-4.94-3.23-8.23-.65-8,3.7,5.61-2.63,9.5,6.29,7.39,11-2.62,1.14-9.86-.75-9.48-6-6.71,5.26-3,10.93-2.87,14.25C68.32,43,65.77,43,63.76,41.19a5.48,5.48,0,0,0,1.16,7.65l.22.15c-3.13,1.2-4.48,2.62-5.36,5.73,1.85,2.75,3.63,3.76,7,4.12-2.13,2.53-1,6.33,1.27,7.8,1.56-2.62,4.66-3.06,5.89-7,1.62,1.69-.53,5.37.38,7.77a17.42,17.42,0,0,0,5.27-.72c-.48,2.74.93,4.47,2.79,5.67-.59-3.46,4.62-8.81,11.48-9.9l2.43,15.45c.45,2.82-.67,2.81-3.08.66A24.19,24.19,0,0,0,90.07,76l-3.4,4a14.17,14.17,0,0,1,6.5,13.26,10.5,10.5,0,0,1-6.29,8.65,11.11,11.11,0,0,1-9-.12c-3.69-1.72-6.46-6-8.27-12.23A5.36,5.36,0,0,0,72,85.23c0-3-2.79-5.54-6.25-5.54s-6.26,2.49-6.26,5.54a5.75,5.75,0,0,0,4.83,5.39c1.48,6.64,1.08,11.54-1.2,14-1.54,1.66-4.37,2.63-8,2.41-2.62-.16-7.26-2.47-9.58-6.31s-1.8-9.63,2.4-14.43L43,83.69c-.21.31-1,1.26-1.16,1.57a12.84,12.84,0,0,0-.47-1.36,24.14,24.14,0,0,0-2.76-5.19c5.4-1,10.93.52,12.45,3.08a5.11,5.11,0,0,0-1.52-6,16.87,16.87,0,0,0,4.75-2.16c-.85-2.42-5-4.27-4.86-6.49,3.63,2.57,6.44,1.31,9.46,2.63.82-2.37-.78-6-4.18-7,2.49-2,3.25-3.78,3-7a9,9,0,0,0-8.14-1.85c1.07-3-1.4-6.28-4.08-7-.42,2.51-2.49,3.83-2.91,6.69-2.15-2.74-1.9-11.77-10.82-12.55,3.77,4-.83,9.32-3.7,9.76C23.25,48.14,23,36.66,29.29,35.9c-2.64-3.68-9.54-1.84-11.4,3.33-2.53-4.31-3.9-4.92-1.94-8.5-3,0-5.09,1-5,3.32-2.13-3.61-6.5-3.18-7.81-2.58-1.07,2.67,3.25,5.54,5.76,8s-1,6.37.15,10.24,6.56,3.88,11.9,8.58c1.54,1.37,1.9,2.56,1.8,3.68h0a6.48,6.48,0,0,0-2,8.65,8.21,8.21,0,0,0,7,3.77c.63,0,1.56,1.33,2.53,2.5a36.36,36.36,0,0,1,3.14,3.76,23.36,23.36,0,0,1,3,5.59c2.66,6.91-.46,11.06,4.12,16.82.19.3.36.58.57.85h0c2.72,3.91.84,12.79-2,16.49a3.65,3.65,0,0,0-.76,2.15c0,3.27,2.66,4.24,4.71,6v-.11c.08.16.19.39.27.59a5.12,5.12,0,0,0-.59.55h0a.64.64,0,0,0-.15.13h0l-.12.12h0l-.27.31-.32.39a14.38,14.38,0,0,0,.32,17.57A29.78,29.78,0,0,0,48.54,153c-3.54,2.14-5.42,4.55-5.42,7.28,0,2.4,1.31,4.23,3.74,5.73H0V391.14C.61,481.48,76.69,555,169.58,555s169-73.47,169.59-163.8v-1.45Z"/><path class="cls-1" d="M169.29,463.26a3.41,3.41,0,1,0,3.48,3.38,3.41,3.41,0,0,0-3.48-3.38"/><path class="cls-1" d="M199.66,263.88c-5.43-2-16.86-3.33-30.07-3.33s-24.63,1.35-30.08,3.33c5.66,1.44,17,2.43,30.08,2.43s24.41-1,30.07-2.43"/><path class="cls-1" d="M160.79,466.62a8.13,8.13,0,0,1,3.75-6.83,9.17,9.17,0,0,0-6-2.09h-.61a9.26,9.26,0,0,0-5.74,2.55s-.06.07-.06.11a8.83,8.83,0,0,0-.25,12.47c.08.09.17.17.25.25l.06.1c.15.15.34.27.51.42h0a4.21,4.21,0,0,0,.48.35,2.62,2.62,0,0,0,.34.24l.34.22c.15.07.27.15.42.23l.4.2.38.17.47.17.37.14.47.11a3.2,3.2,0,0,0,.42.1l.46.08.45.07h1.14a8.67,8.67,0,0,0,5.7-2.18,8.28,8.28,0,0,1-3.82-7"/><path class="cls-1" d="M170.43,474.87h-.49a14,14,0,0,1-8.5,5.17,25.16,25.16,0,0,0,17.32-.09,14,14,0,0,1-8.33-5.12"/><path class="cls-1" d="M169.9,458.43h.61a14.1,14.1,0,0,1,8.26-5.07,25.7,25.7,0,0,0-17.43,0,14.09,14.09,0,0,1,8.56,5.06"/><path class="cls-1" d="M183.29,457.8h-.21a3.75,3.75,0,0,0-.47-.05h-1.05a8.63,8.63,0,0,0-6.42,2.94,8.08,8.08,0,0,1,2.75,6,8.25,8.25,0,0,1-2.83,6.19,9.05,9.05,0,0,0,6.86,2.92h1a8.88,8.88,0,0,0,2.58-.69l.1-.06c.17-.07.34-.14.51-.23a9,9,0,0,0,4.94-8,9.13,9.13,0,0,0-7.77-8.9"/><path class="cls-1" d="M291.22,368.88c-.73,3-2.91,1.8-3.18,1.67a1.57,1.57,0,0,0,1.6-1.2c.3-1.35-2.21-1.89-3.59-.61-1.71,1.58-6.45,3.62-10.82-1.13a7.25,7.25,0,0,1-1.44-3.56c-.06-.43-2.45-3.18-6.22-.87-4,2.45-1.71,7.91.34,10,.61.6,9.79,9.16,11,10.8,1.37,1.8,4.75,9-3.88,14.17a24.93,24.93,0,0,1-13.42,1.94c-.19-.13.31,3.15,3.44,4.48-.7,1.23-3.21,1.17-3.59,1s.08,2.72,2.95,3.91a3.27,3.27,0,0,1-2.74.9c-.25-.08,1.39,7.32,2.39,8.67.78.82,4,.82,4,.82a5.59,5.59,0,0,0,1.64,5.44,1,1,0,0,1-1,1h-.15a8,8,0,0,0,1.5,4.2c.23.33-.91.63-1.24.61a14.06,14.06,0,0,0-1.71-.13c-1,.08-.42,4.33-.42,4.75s-2.66-.2-3.44-.42c-1.23,1.31-1.5,2.65-3.59,1.74-1.16-.5-1.14,1.35-1.23,1.61s-1-.12-1.28-2.87c-1.37,1.33-2.6,1-2.79.64s-.8.57-.74,1-1.07,0-1.79-2.58c-1.79-1.54-2.36.41-2.36.41s-2.31-1.25,1.07-3.9c.78-1.27,1-2.18,1.29-2.59s.72-.08.93,0,2.13-.2,2.59.77,3,1.95,4.58-1.19c1.19-2.27.87-2.65.87-2.65l-1.65-1a6.24,6.24,0,0,1-.27-2.5c.14-1.33-5.83-6.29-7.12-7s-8.75-5.86-10.4-8a19.33,19.33,0,0,1-2-3c-1.67.17-6.27.51-9.92-2.11a5.48,5.48,0,0,1-2.68,3.13c-1,.49-2.34,4-2.85,4.52a6.26,6.26,0,0,1,1,2c.09.37.8.87-1.71,3a1.88,1.88,0,0,1-2-.18,2.37,2.37,0,0,0-1.75-.55c-.72,0-1.65,1-2.49.94s-1.1-.6-1.82-.7-1.41.56-2,.58a8.1,8.1,0,0,1-2.49-.39c-1.27-.21-2,.75-3.32.79-.92,0-1.81-1.22-3.63-.28-1.28.28-1.16-1.89-1.16-2.32s-1.5-.89-.93-2.28-1.94.69-2.08,1-1.27-1.33,1.66-3.42c-1.28-.36-.63-2.31-.36-2.52s-1.94-.71-2.8-.6,1.71-1.88,3.23-1.48c0-1.81,7.28-3.42,7.82,0,.22,2.19-.56,3.49-.23,4.14a5.08,5.08,0,0,0,3.4,1.88c1.35,0,5.21-.85,5.28-7.2s.5-9.54,2.38-11.51c1.54-1.59,2.93-1.55,3-2.77a6,6,0,0,1-.38-.71c-.82-1.53-3-3.06-2.89-4.81s-1.14,2-2.15,1.61c-.28-1.2-.57-3.63-2.58-5-1-.92-1.37-.07-1.28.7s.5,2.5.2,2.17a18.27,18.27,0,0,1-1.22-1.42,3.42,3.42,0,0,1-1-2.6,2.21,2.21,0,0,1,.08-.37h0l.11-.36c0-.13,0-.05,0-.09l.17-.34.06-.11c.11-.15.2-.3.32-.47l-.27-1.08c-.62-2.39-1-3.36-1.71-3.61s-1.31.72-1.46.36a2.27,2.27,0,0,1,.57-2.42c.15-.35-2.05-.06-2.17-.62s.21-.75,1-1.48c.23-.2.13-1-1.35-.68-2.64.43-4.45,2.55-5.51,2.08,0,0,.72-1.19-.51-1.32-.8-.08-1.6.19-3.1.27s-1.94-.55-3-1.09c-.55-.31-1.35.73-3,.42-1.26-.23-1.56-1.14-2.28-1.22-1.41-.11-1.87.91-5.1-2.3-.93-.46-1.36.58-1.36.58a2.3,2.3,0,0,1,.55-2.17c-.42-.63-2.78-.48-2.42-3.21.44-3.23-2.62-2-2.28-2.38,1.07-1.29,2.47-1.66,3.23-1.24,0,0,.9-2.81-2.75-3,1.1-1.36,2.75-2.17,5-.22,2.09-1,4.86-.46,5.59,1.9.43,1.46-.06,2.36.36,3a5,5,0,0,0,2.72,2.23c2.12.37,2.87-.23,4.69-.16a14.41,14.41,0,0,1,4.64.89,8.61,8.61,0,0,0,4.56,0,19.39,19.39,0,0,0,3.65-1.95,1.28,1.28,0,0,0,.15-.25c-1.48-.92-3.08-1.36-3.71-4.1-1.44-1.53-2.49-1.89-3.15-4.67s-1.14-2.52-.42-3.83c.44-.87-1.65-2.31-.78-4.12.12-1.51-1.54-1.15-.15-3.56-.95-1-1.77-4.61-.44-6a3.59,3.59,0,0,0-1.88-2.16c-.28-.15.74-1,3,.34,1.16,0,1-1.17,1.6-1.6l1-.7a1.51,1.51,0,0,0-.76-1.86c.72-.5,2.58-1.48,3.44,1.79,1.08-.9,1.65-.27,2.07-.27s.29-1.83-1.08-2.59A2.9,2.9,0,0,1,213.2,326a3.19,3.19,0,0,1,.12.6c.72.68,3.14,3.56-2.24,6.61-2.28,1.53-.23,4.88-.13,5.1,1,2.31-.14,3.78.85,5.43.27.47,3.46,4.76,5.55,5.59l1,.16a2.23,2.23,0,0,1,.3-.2,1.83,1.83,0,0,0,.42-.5,1,1,0,0,0-.37-1.37,1,1,0,0,0-.63-.12c-.68,0,.42-.9,1.71-.83a3.06,3.06,0,0,0,3-1.12c2.05-2.16,5.66-2.36,7-2.43s4.32.49,5.53.27a2.73,2.73,0,0,0,2-1.19,5.25,5.25,0,0,0,.53-1.53,6.61,6.61,0,0,0,0-.89c-.13-.81-1.12-.71-1.41-.3s-.61,1.15-1.29,1.15-1-1-1.67-.94-1.37.82-1.88.77-1.2-1-2-.42a3.1,3.1,0,0,1-3.1-.19c-.72-.57.59-.16,1.29-.64s1.58-2.86,1.66-3.9.49-1,.49-1,.55,1.48,1.16,1.45,1.33-.93,1.58-1.26a.56.56,0,0,1,.93-.07,3.26,3.26,0,0,0,2,1.06c.72,0,3.59.48,3.17-3.7-.21-2-2.47-1.21-2.79-1.21-.52,0-.8-.47-1.94-.53a1.75,1.75,0,0,0-1.85,1.11c-.09.35-1.16.22-1.8-2.1s1.18-3.68,1.23-4-2.16.07-2.39-.61.38-1.28,1-1.76a17.87,17.87,0,0,1,6.18-3.7c.85-.42.28-1.48.07-1.91s1.35.72,1.77.81.93.68,6.31-1.75c1.52-1.11-.42-2.16-1.16-1.35-.36-.84.7-2.19,2.49-2,1.5.12,2,1.6,2.2,2s1,.18,1.35-.08,1.18-.77.9-2.76a1,1,0,0,1,1.35.43h0c.09.21.57-1,.49-1.42s1.58.26,2.51,2.79c.42.77,1.1-.29,1.79,0,.28.15.22-.33.78-1a2.21,2.21,0,0,1,2.54-.54,1,1,0,0,0-.68,1.5,11.34,11.34,0,0,0,1.65,2.81c.52.42,1.73-.28,2,.13s.7,2.51,2.58,2.37c-.06,1-1.65,1.82-1.92,2.07s.93.1,1.26.93-.19,3.91,1.38,5,1.51.72,1.73.58.46,1.64-3.47,1.74c-1.35.22.34,1.34.34,1.34a6.34,6.34,0,0,1,2.77,3.88c.36,2.15.55,4.34-2.15,7.95-2.58,3.44-2.6,4.68-1.1,5.72a1.89,1.89,0,0,0,2.64-.45s.07-.1.1-.16c.08-.22.51,2.17-2.81,2.84a4.83,4.83,0,0,1-3.5-.82c-.23-.23.06,4.37-.08,5a6.57,6.57,0,0,1-3.8,5.66c-3.8,2-2.34,4.12-2,4.82s-3.82,1-4.53-3.43h0v-.06a2.88,2.88,0,0,1-.26.35l-.06,0c-1.44,1.56-5.07,3.19-7.75,3.85a3.2,3.2,0,0,0-.71,2.34,23.44,23.44,0,0,0,1.6,7c.15.36.32.73.48,1.09a3.78,3.78,0,0,1,.17.35l.47.88c.08.1.12.23.21.35a14.17,14.17,0,0,0,7.6,6.38,14.92,14.92,0,0,1,10.42,8.09c.42.5,1.84,4.05,6.42,3.91,4.76.21,12.81-5.65,5.1-13-1.49-1.81-11.67-8.26-11.35-15-.17-5.13,3.55-10,11.23-8a1.5,1.5,0,0,0,1.64-.27c1.44-1.16,8.23-3.41,10.62,4.6.23.6,1.1.7,1.1.7s4.79.47,4,3.7M170,486.13c-14.27,0-25.83-8.71-25.83-19.43,0-8.22,6.77-15.23,16.39-18.06a2.74,2.74,0,0,1,2.37-2.4h.8a2.86,2.86,0,0,1,1.18-.79l.3-.05V323.9a2.49,2.49,0,0,1-1.82-1,2.41,2.41,0,0,1-.42-1.33h-4.6v-4.49h-4.62v4.49h-4.62V308.05h4.62v4.47h4.62v-4.47H163v-4.47h-4.6v-4.5h-4.62v4.5h-4.62V290.1h4.62v4.47h4.62V290.1H163a2.42,2.42,0,0,1,2.24-2.36v-4.88c0-1,1.9-2.06,4.64-2.06s4.64,1.06,4.64,2.06V445.37l.28.05a2.71,2.71,0,0,1,1.18.79h.8a2.73,2.73,0,0,1,2.36,2.3c9.77,2.76,16.76,9.86,16.76,18.16,0,10.72-11.59,19.43-25.87,19.43m-28.6-81.32c-.86-.11-3.1.39-2.81.6s.93,2.16-.33,2.52c2.91,2.09,1.77,3.76,1.64,3.42s-2.68-2.45-2.09-1-.94,1.87-.94,2.28.14,2.6-1.14,2.32c-1.82-.94-2.71.29-3.63.28-1.27,0-2.05-1-3.34-.79a8,8,0,0,1-2.47.39c-.55,0-1.24-.68-2-.58s-1,.65-1.84.7-1.75-.94-2.51-.94a2.32,2.32,0,0,0-1.73.55,1.88,1.88,0,0,1-2,.18c-2.52-2.11-1.8-2.61-1.71-3a6.26,6.26,0,0,1,1-2c-.51-.56-1.84-4-2.85-4.52s-2.51-2-2.66-3.13c-3.67,2.62-8.27,2.28-9.92,2.11a21.44,21.44,0,0,1-2,3c-1.67,2.1-9.12,7.18-10.43,8s-7.23,5.72-7.11,7.05a6.24,6.24,0,0,1-.27,2.5l-1.65,1s-.31.38.87,2.65c1.58,3.14,4.15,2.17,4.58,1.19s2.36-.71,2.59-.77.64-.42.93,0,.51,1.32,1.29,2.59c3.37,2.65,1.07,3.9,1.07,3.9s-.57-2-2.36-.41c-.72,2.58-1.88,3-1.81,2.58s-.49-1.32-.72-1-1.42.69-2.79-.64c-.27,2.75-1.2,3.16-1.28,2.87s-.07-2.11-1.23-1.61c-2.09.91-2.36-.43-3.57-1.74-.82.22-3.44.83-3.44.42s.53-4.67-.44-4.75a14.06,14.06,0,0,0-1.71.13c-.31,0-1.48-.28-1.22-.61a8.56,8.56,0,0,0,1.5-4.2,1,1,0,0,1-1.15-.83.91.91,0,0,1,0-.17,5.59,5.59,0,0,0,1.64-5.44s3.25,0,4-.82c1-1.35,2.68-8.75,2.39-8.67a3.25,3.25,0,0,1-2.73-.9c2.87-1.19,3.29-4.13,2.94-3.91s-2.87.26-3.59-1c3.14-1.33,3.67-4.61,3.46-4.48a25,25,0,0,1-13.42-1.94C55.76,393,59.13,385.79,60.51,384c1.26-1.64,10.44-10.2,11-10.8,2.07-2.11,4.41-7.57.36-10-3.78-2.31-6.14.44-6.22.87a7,7,0,0,1-1.44,3.56c-4.37,4.75-9.11,2.71-10.85,1.13-1.35-1.28-3.86-.74-3.58.61a1.61,1.61,0,0,0,1.62,1.2c-.29.13-2.45,1.31-3.19-1.67-.78-3.23,4-3.7,4-3.7s.84-.1,1.07-.7c2.39-8,9.18-5.76,10.62-4.6a1.5,1.5,0,0,0,1.64.27c7.68-2,11.4,2.87,11.23,8,.32,6.76-9.86,13.21-11.36,15-7.7,7.32.34,13.18,5.11,13,4.58.14,6-3.41,6.44-3.91a14.8,14.8,0,0,1,10.4-8.09,14,14,0,0,0,7.6-6.38c.08-.12.15-.25.21-.35.17-.31.32-.59.46-.88.07-.12.11-.24.17-.35.17-.36.34-.73.49-1.09a23.78,23.78,0,0,0,1.62-7,3.24,3.24,0,0,0-.73-2.34c-2.68-.66-6.31-2.29-7.75-3.85l-.06-.05a2.88,2.88,0,0,1-.26-.35v.06h0c-.7,4.41-4.87,4.11-4.51,3.43s1.79-2.8-2-4.82a6.52,6.52,0,0,1-3.8-5.66c-.14-.63.13-5.23-.08-5a4.88,4.88,0,0,1-3.5.82c-3.32-.67-2.9-3.06-2.81-2.84a1.88,1.88,0,0,0,2.56.71l.16-.1c1.52-1,1.5-2.28-1.08-5.72-2.7-3.61-2.51-5.8-2.15-7.95a6.34,6.34,0,0,1,2.79-3.88s1.66-1.12.31-1.34c-3.9-.1-3.67-1.9-3.46-1.74s.15.55,1.73-.58,1-4.16,1.38-5,1.53-.62,1.26-.93-1.86-1.09-1.92-2.07c1.88.14,2.3-2,2.6-2.37s1.47.29,2-.13a11.34,11.34,0,0,0,1.65-2.81,1,1,0,0,0-.34-1.37.89.89,0,0,0-.34-.13,2.19,2.19,0,0,1,2.53.54c.57.63.51,1.11.79,1,.69-.33,1.37.73,1.79,0,.93-2.53,2.57-3.09,2.51-2.79s.4,1.63.48,1.42a1,1,0,0,1,1.34-.44h0c-.25,2,.7,2.58.89,2.76s1.1.58,1.37.08.7-1.86,2.2-2c1.79-.16,2.85,1.19,2.49,2-.74-.81-2.68.24-1.16,1.35,5.38,2.43,5.89,1.81,6.31,1.75s2-1.23,1.79-.81-.8,1.49.07,1.91a17.79,17.79,0,0,1,6.16,3.7c.59.48,1.16,1.05,1,1.76s-2.49.26-2.41.61,1.88,1.75,1.23,4-1.71,2.45-1.8,2.1a1.75,1.75,0,0,0-1.85-1.11c-1.15.06-1.42.57-2,.53-.31,0-2.57-.77-2.78,1.21-.44,4.18,2.45,3.7,3.16,3.7a3.31,3.31,0,0,0,2-1.06c.29-.34.65-.27.93.07s1,1.21,1.58,1.26,1.16-1.45,1.16-1.45.42-.08.51,1,.9,3.41,1.64,3.9,2,.07,1.29.64a3.06,3.06,0,0,1-3.08.19c-.8-.56-1.52.35-2,.42s-1.22-.68-1.87-.77-1.1.94-1.67.94-1-.75-1.31-1.15-1.29-.51-1.37.3a6.61,6.61,0,0,0,0,.89,5.25,5.25,0,0,0,.53,1.53,2.76,2.76,0,0,0,2,1.19c1.21.22,4.22-.35,5.53-.27s4.94.27,7,2.43a3.06,3.06,0,0,0,3,1.12c1.29-.07,2.39.87,1.71.83a1,1,0,0,0-1.12.86,1,1,0,0,0,.12.63,1.83,1.83,0,0,0,.42.5l.3.2a4,4,0,0,0,1-.16c2.09-.83,5.25-5.12,5.55-5.59,1-1.65-.15-3.12.84-5.43.11-.22,2.18-3.57-.12-5.1-5.38-3-3-5.93-2.24-6.61a2.9,2.9,0,0,1,3.14-2.64,3,3,0,0,1,.6.12c-1.38.76-1.5,2.59-1.08,2.59s1-.63,2.09.27c.84-3.27,2.7-2.29,3.42-1.79a1.48,1.48,0,0,0-.76,1.86s.42.27,1,.7.42,1.6,1.58,1.6c2.28-1.32,3.29-.49,3-.34a3.66,3.66,0,0,0-1.88,2.16c1.31,1.39.51,5-.44,6,1.39,2.41-.28,2-.15,3.56.87,1.81-1.22,3.25-.78,4.12.72,1.31.23,1-.42,3.83s-1.71,3.14-3.17,4.67c-.61,2.74-2.19,3.18-3.69,4.1a1.28,1.28,0,0,0,.15.25,18.69,18.69,0,0,0,3.67,1.88,8.61,8.61,0,0,0,4.56,0,14.41,14.41,0,0,1,4.64-.89c1.81-.07,2.57.53,4.68.16,1.12-.16,2.3-1.52,2.75-2.23s-.09-1.59.34-3.05c.73-2.36,3.52-2.95,5.59-1.9,2.21-1.95,3.86-1.14,5,.22-3.65.19-2.77,3-2.75,3,.76-.42,2.15-.05,3.25,1.24.32.41-2.74-.85-2.3,2.38.36,2.73-2,2.58-2.42,3.21a2.37,2.37,0,0,1,.57,2.17,1.05,1.05,0,0,0-1.38-.58c-3.23,3.21-3.69,2.19-5.1,2.3-.7.08-1,1-2.28,1.22-1.61.31-2.41-.73-3-.42-1.05.54-1.48,1.16-3,1.09s-2.3-.35-3.08-.27c-1.25.13-.49,1.32-.49,1.32-1.1.47-2.91-1.65-5.55-2.08-1.48-.27-1.61.48-1.35.68.8.73,1,1,1,1.48s-2.3.27-2.13.62a2.25,2.25,0,0,1,.55,2.42c-.13.36-.87-.53-1.46-.36s-1.09,1.22-1.71,3.61c-.08.33-.19.69-.27,1.08.1.17.23.32.31.47l.07.11a3.59,3.59,0,0,1,.17.34v.09s.09.25.13.36h0a2.21,2.21,0,0,1,.08.37,3.49,3.49,0,0,1-1,2.6,15.08,15.08,0,0,1-1.23,1.42c-.29.33.15-1.42.21-2.17s-.27-1.62-1.28-.7c-2,1.33-2.3,3.76-2.58,5-1,.41-2.21-3.35-2.15-1.61s-2.09,3.28-2.87,4.81c-.13.25-.25.47-.4.71.1,1.22,1.52,1.18,3,2.77,1.88,2,2.32,5.17,2.4,11.51s3.93,7.2,5.28,7.2a5,5,0,0,0,3.37-1.88c.36-.65-.42-2-.21-4.14.55-3.4,7.81-1.79,7.83,0,1.52-.4,4,1.6,3.23,1.48m-27-70.62a5.86,5.86,0,0,0,3.54-1.18l.32-.58v0c0-.07.12-.1.12-.1a.52.52,0,0,1,.57.17.45.45,0,0,1,.13.51c-.13.23-.57.7-2.47,1.14-3.21.75-3.52.87-5.91-.17-1.31-.57-3.54-.35-5.53-.13a11.08,11.08,0,0,1-3.35.09.63.63,0,0,1-.36-.34v-.19a1.84,1.84,0,0,1,.36-.93,12,12,0,0,0,4.47-.13,5.77,5.77,0,0,1,4.49.94,7.73,7.73,0,0,0,3.66,1m9.54-105.61a1.82,1.82,0,0,1,2.15.72c0-.63.55-.92,1.37-.92-.55,1-.17,1.16.53,2.35.5-1.43,2.4-1.94,3.12-.92-1.71.21-1.65,3.38-.34,4.11.8-.11,2.07-1.58,1-2.69,2.47.22,2.38,2.7,3,3.46.13-.78.7-1.15.8-1.85a1.6,1.6,0,0,1,1.12,1.95,2.52,2.52,0,0,1,2.24.51,1.93,1.93,0,0,1-.8,1.92,1.61,1.61,0,0,1,1.14,1.93c-.83-.37-1.61,0-2.6-.73,0,.61,1.1,1.12,1.33,1.8a4.71,4.71,0,0,1-1.29.59,1.42,1.42,0,0,1,.4,1.66c-.4-.7-1.94-1.13-3.41-.86a7.12,7.12,0,0,1,.77,1.44c0,.13.07.25.11.37a3.32,3.32,0,0,0,.32-.42l1.35.72a3.48,3.48,0,0,0-.66,4,3.92,3.92,0,0,0,2.62,1.74,2.85,2.85,0,0,0,2.22-.67c.61-.69.71-2,.31-3.87a1.58,1.58,0,0,1-1.33-1.48,1.75,1.75,0,0,1,3.47,0,1.49,1.49,0,0,1-.66,1.2c.51,1.73,1.25,2.89,2.26,3.37a3.08,3.08,0,0,0,2.49,0,2.86,2.86,0,0,0,1.73-2.38,3.92,3.92,0,0,0-1.77-3.67l.9-1.09a5.94,5.94,0,0,1,.87.72c.68.58,1,.59.84-.19l-.65-4.26c-1.9.3-3.31,1.78-3.17,2.73a1.51,1.51,0,0,1-.76-1.56,5.08,5.08,0,0,1-1.45.2c-.26-.66.33-1.68-.11-2.15-.32,1.09-1.18,1.22-1.6,1.94a1.51,1.51,0,0,1-.36-2.12l0,0a2.27,2.27,0,0,1-1.92-1.15,2,2,0,0,1,1.48-1.57,1.5,1.5,0,0,1-.44-2.09l0-.06c.57.49,1.26.49,1.87,1.07,0-.91-1-2.48.81-3.93-.11,1.44,1.88,2,2.59,1.66.57-1.3-.48-3.76-2-3-.06-1.2.85-1.91,2.2-1-.21-1.33-.38-2-1.48-2.56.68-.45,1.33-.51,1.73,0a1.41,1.41,0,0,1,.93-1.73,1.54,1.54,0,0,1,1.48,1.42c.21-.62.84-.72,1.62-.47-.86.78-.8,1.5-.57,2.83,1-1.2,2.09-.77,2.41.41-1.71-.31-1.92,2.34-1,3.42.8.11,2.53-.91,2-2.25,2.22.91,1.76,2.67,2,3.55.4-.72,1.08-.88,1.46-1.5a1.53,1.53,0,0,1,.34,2.14h0a2.26,2.26,0,0,1,1.92,1.13,2.12,2.12,0,0,1-1.47,1.58,1.53,1.53,0,0,1,.42,2.11l0,.05c-.66-.6-1.52-.5-2.2-1.44-.25.56.63,1.39.61,2.07a4.45,4.45,0,0,1-1.45.19,1.34,1.34,0,0,1-.24,1.69c-.14-1-2.13-2.08-4.13-1.78l.69,4.31c.13.79.46.77,1-.06a5,5,0,0,1,.84-1l1.08,1a3.53,3.53,0,0,0-.72,4.14,3.11,3.11,0,0,0,2.68,2,3,3,0,0,0,2.11-1,5.47,5.47,0,0,0,1.06-3.87,1.54,1.54,0,0,1-1.12-1.42,1.62,1.62,0,0,1,1.7-1.53h0a1.64,1.64,0,0,1,1.73,1.53,1.49,1.49,0,0,1-.89,1.32,6.2,6.2,0,0,0,.89,2.74,3.58,3.58,0,0,0,3.23,1.81,3,3,0,0,0,2.55-1.85c.72-1.5.13-3.29-1.6-4.81l1.09-1a6.47,6.47,0,0,1,.78.79c.61.63,1.29.88,1.4,0v-3.93c-2.09,0-3.91,1.35-3.91,2.41a1.49,1.49,0,0,1-.52-1.75,5.67,5.67,0,0,1-1.54,0c-.15-.73.63-1.69.25-2.24-.55,1.09-1.46,1.09-2,1.79a1.61,1.61,0,0,1,0-2.26l0,0a1.48,1.48,0,1,1,0-2.89,1.61,1.61,0,0,1,0-2.26l0,0c.51.6,1.23.69,1.78,1.37.12-.95-.68-2.72,1.49-4-.36,1.51,1.63,2.31,2.43,2.09.82-1.27.15-4-1.58-3.44.1-1.25,1.18-1.86,2.42-.75,0-1.41,0-2.18-1.09-2.86.78-.36,1.47-.35,1.79.26a1.57,1.57,0,0,1,1.2-1.67h.09a1.59,1.59,0,0,1,1.22,1.67c.32-.61,1-.62,1.77-.26-1,.68-1.09,1.45-1.09,2.86,1.26-1.11,2.32-.5,2.45.75-1.74-.53-2.43,2.17-1.59,3.44.8.22,2.79-.58,2.43-2.09,2.15,1.27,1.37,3,1.5,4,.55-.68,1.26-.77,1.75-1.37a1.58,1.58,0,0,1,.06,2.23l-.06.06a2.32,2.32,0,0,1,1.79,1.44,2.28,2.28,0,0,1-1.79,1.45,1.58,1.58,0,0,1,.06,2.23l-.06.06c-.57-.7-1.48-.7-2-1.79-.38.55.43,1.51.28,2.24a5,5,0,0,1-1.54,0,1.56,1.56,0,0,1-.51,1.75c0-1.06-1.86-2.45-4-2.41v3.93c.11.9.79.65,1.42,0a8.08,8.08,0,0,1,.76-.79l1.1,1c-1.69,1.52-2.3,3.31-1.61,4.81a3,3,0,0,0,2.55,1.85,3.69,3.69,0,0,0,3.28-1.81,7,7,0,0,0,.84-2.74,1.45,1.45,0,0,1-.86-1.32,1.61,1.61,0,0,1,1.69-1.53h0a1.64,1.64,0,0,1,1.73,1.53,1.54,1.54,0,0,1-1.11,1.42,5.31,5.31,0,0,0,1.05,3.87,2.87,2.87,0,0,0,2.11,1,3.11,3.11,0,0,0,2.68-2,3.53,3.53,0,0,0-.72-4.14l1.08-1a4.38,4.38,0,0,1,.82,1c.57.83.91.85,1.06.06l.65-4.31c-2-.3-4,.79-4.15,1.78a1.45,1.45,0,0,1-.22-1.69,4.33,4.33,0,0,1-1.43-.19c0-.68.86-1.51.59-2.07-.68.94-1.54.84-2.17,1.44a1.5,1.5,0,0,1,.3-2.11l.06,0a2.06,2.06,0,0,1-1.46-1.58,2.26,2.26,0,0,1,1.9-1.18,1.52,1.52,0,0,1,.29-2.12l0,0c.36.62,1,.78,1.43,1.5.3-.88-.21-2.64,2.05-3.55-.57,1.34,1.16,2.36,1.94,2.25,1-1.08.78-3.73-1-3.42.32-1.18,1.42-1.61,2.43-.41.21-1.33.29-2-.59-2.83.78-.25,1.43-.15,1.64.47a1.52,1.52,0,0,1,1.46-1.42,1.41,1.41,0,0,1,1,1.73c.4-.53,1-.47,1.71,0-1.08.52-1.25,1.23-1.48,2.56,1.37-.9,2.28-.19,2.2,1-1.55-.73-2.62,1.73-2,3,.72.3,2.7-.22,2.6-1.66,1.83,1.45.82,3,.78,3.93.63-.58,1.33-.58,1.88-1.07a1.55,1.55,0,0,1-.36,2.15h0a2.05,2.05,0,0,1,1.45,1.57,2.29,2.29,0,0,1-1.92,1.15,1.52,1.52,0,0,1-.29,2.12l-.05,0c-.42-.72-1.28-.85-1.62-1.94-.44.47.15,1.49-.11,2.15a5,5,0,0,1-1.49-.16,1.5,1.5,0,0,1-.78,1.56c.17-.95-1.27-2.43-3.15-2.73l-.67,4.26c-.13.78.19.77.84.19a5.94,5.94,0,0,1,.87-.72l.93,1.09a3.88,3.88,0,0,0-1.78,3.67,2.87,2.87,0,0,0,1.71,2.38,3.08,3.08,0,0,0,2.49,0,5.07,5.07,0,0,0,2.28-3.37,1.48,1.48,0,0,1-.65-1.2,1.73,1.73,0,0,1,3.44,0,1.59,1.59,0,0,1-1.31,1.48c-.42,1.84-.32,3.18.32,3.87a2.78,2.78,0,0,0,2.21.67,4,4,0,0,0,2.62-1.74,3.5,3.5,0,0,0-.66-4l1.33-.72a4.63,4.63,0,0,1,.32.42,2.32,2.32,0,0,1,.13-.37,9.9,9.9,0,0,1,.76-1.44c-1.48-.27-3,.16-3.42.86a1.41,1.41,0,0,1,.42-1.66,4.71,4.71,0,0,1-1.29-.59c.21-.68,1.35-1.19,1.33-1.8-1,.71-1.77.36-2.59.73a1.6,1.6,0,0,1,1.14-1.93,1.84,1.84,0,0,1-.81-1.92,2.48,2.48,0,0,1,2.22-.51,1.64,1.64,0,0,1,1.12-2c.13.7.69,1.07.8,1.85.59-.76.53-3.24,3-3.46-1,1.11.23,2.58,1,2.69,1.33-.73,1.39-3.9-.34-4.11.74-1,2.64-.51,3.12.92.7-1.19,1.08-1.36.55-2.35.83,0,1.4.29,1.35.92a1.84,1.84,0,0,1,2.16-.72c.29.75-.89,1.53-1.59,2.21s.26,1.76,0,2.82-1.79,1.08-3.27,2.36a1.2,1.2,0,0,0-.49,1h0a1.78,1.78,0,0,1,.55,2.39,2.27,2.27,0,0,1-1.92,1c-.17,0-.42.38-.67.7a7.51,7.51,0,0,0-.87,1,6.39,6.39,0,0,0-.84,1.54c-.74,1.9.12,3-1.14,4.64a1.14,1.14,0,0,1-.15.23c-.74,1.08-.23,3.53.57,4.55a1.06,1.06,0,0,1,.21.59c0,.9-.74,1.17-1.31,1.65h0l-.06.16.15.16h0a.2.2,0,0,1,.09.09.2.2,0,0,1,.08.1,4,4,0,0,1-.08,4.85,7.34,7.34,0,0,1-1.78,1.35c1,.59,1.52,1.25,1.52,2a1.83,1.83,0,0,1-1,1.55h0l-.27.11c-.07,0-.13.08-.19.11h0a30.78,30.78,0,0,1-6,1.33,200.91,200.91,0,0,1-54.55,0,31.53,31.53,0,0,1-6-1.33h0c-.06,0-.12-.08-.19-.11l-.27-.11h0a1.83,1.83,0,0,1-1-1.55c0-.75.53-1.41,1.5-2a8,8,0,0,1-1.78-1.35,4,4,0,0,1-.08-4.85l.08-.1.09-.09h0c.07-.05.11-.11.17-.16l-.08-.16h0c-.55-.48-1.29-.75-1.29-1.65a1.06,1.06,0,0,1,.21-.59c.78-1,1.31-3.47.57-4.55-.06-.08-.1-.15-.17-.23-1.26-1.59-.38-2.74-1.14-4.64a6,6,0,0,0-.82-1.54,8.24,8.24,0,0,0-.86-1c-.28-.32-.51-.7-.7-.7a2.23,2.23,0,0,1-1.9-1,1.82,1.82,0,0,1,.53-2.4h0a1.26,1.26,0,0,0-.51-1c-1.46-1.28-3-1.28-3.27-2.36s.66-2.14,0-2.82-1.86-1.46-1.58-2.21m96.83,103.84a.54.54,0,0,1,.57-.17s.15,0,.15.1v0l.32.58a5.86,5.86,0,0,0,3.54,1.18,7.66,7.66,0,0,0,3.65-1,5.85,5.85,0,0,1,4.52-.94,12.11,12.11,0,0,0,4.45.13,1.84,1.84,0,0,1,.36.93v.19a.58.58,0,0,1-.36.34,11.08,11.08,0,0,1-3.35-.09c-2-.22-4.22-.44-5.53.13-2.39,1-2.71.92-5.93.17-1.86-.44-2.35-.91-2.45-1.14a.48.48,0,0,1,.1-.51M296,389.67V208H43.2V390.78h0c.44,67.5,56.83,122.07,126.36,122.07s126-54.57,126.39-122.07v-1.06"/></g></g></svg>