<svg xmlns="http://www.w3.org/2000/svg" viewBox="0 0 2105.46 112.8"><defs><style>.cls-1{fill:#4eb2e5;}</style></defs><g id="Capa_2" data-name="Capa 2"><g id="Capa_1-2" data-name="Capa 1"><g id="Grupo_1" data-name="Grupo 1"><path id="Trazado_1" data-name="Trazado 1" class="cls-1" d="M0,23.86H14.53v7.5H26.21V5.63H50.78v20h6.9L69.36,13.94,81,25.55V65.6h5.27V45.33h17.18v7h16V29.14h27.87V65.6h7.32V23.93L166,12.6l12.88,12.88h17.45L214.72,7.11l18.65,18.65V0h7.47V17.17h31.53V46.74h7V40.26h39.41v7.89h5.35V27.88s26.75-.28,26.75,0v7.55h11.92v-26h24.59V29.1h7.51l11.54-11.54,11,11V112.8H0Z"/><path id="Trazado_3" data-name="Trazado 3" class="cls-1" d="M675,23.86h14.53v7.5h11.68V5.63h24.57v20h6.9l11.68-11.68L756,25.55V65.6h5.28V45.33h17.17v7h16.05V29.14h27.87V65.6h7.32V23.93L841,12.6l12.88,12.88h17.46L889.72,7.11l18.65,18.65V0h7.47V17.17h31.53V46.74h7V40.26h39.41v7.89h5.35V27.88s26.75-.28,26.75,0v7.55h11.92v-26h24.59V29.1h7.51l11.54-11.54,11,11V112.8H675Z"/><path id="Trazado_5" data-name="Trazado 5" class="cls-1" d="M1351,23.86h14.53v7.5h11.68V5.63h24.57v20h6.9l11.68-11.68L1432,25.55V65.6h5.28V45.33h17.17v7h16V29.14h27.87V65.6h7.32V23.93L1517,12.6l12.88,12.88h17.46l18.37-18.37,18.65,18.65V0h7.47V17.17h31.53V46.74h7V40.26h39.41v7.89h5.35V27.88s26.75-.28,26.75,0v7.55h11.92v-26h24.59V29.1h7.51l11.54-11.54,11,11V112.8H1351Z"/><path id="Trazado_2" data-name="Trazado 2" class="cls-1" d="M337,23.86h14.53v7.5h11.68V5.63h24.57v20h6.9l11.68-11.68L418,25.55V65.6h5.27V45.33h17.18v7h16.05V29.14h27.87V65.6h7.32V23.93L503,12.6l12.88,12.88h17.45L551.72,7.11l18.65,18.65V0h7.46V17.17h31.54V46.74h7V40.26h39.41v7.89h5.35V27.88s26.75-.28,26.75,0v7.55h11.92v-26h24.59V29.1h7.51l11.54-11.54,11,11V112.8H337Z"/><path id="Trazado_4" data-name="Trazado 4" class="cls-1" d="M1012,23.86h14.53v7.5h11.68V5.63h24.57v20h6.9l11.68-11.68L1093,25.55V65.6h5.28V45.33h17.17v7h16V29.14h27.87V65.6h7.32V23.93L1178,12.6l12.88,12.88h17.46l18.37-18.37,18.65,18.65V0h7.47V17.17h31.53V46.74h7V40.26h39.41v7.89h5.35V27.88s26.75-.28,26.75,0v7.55h11.92v-26h24.59V29.1h7.51l11.54-11.54,11,11V112.8H1012Z"/><path id="Trazado_6" data-name="Trazado 6" class="cls-1" d="M1688,23.86h14.53v7.5h11.68V5.63h24.57v20h6.9l11.68-11.68L1769,25.55V65.6h5.28V45.33h17.17v7h16V29.14h27.87V65.6h7.32V23.93L1854,12.6l12.88,12.88h17.46l18.37-18.37,18.65,18.65V0h7.47V17.17h31.53V46.74h7V40.26h39.41v7.89h5.35V27.88s26.75-.28,26.75,0v7.55h11.92v-26h24.59V29.1h7.51l11.54-11.54,11,11V112.8H1688Z"/></g></g></g></svg>