<?xml version="1.0" encoding="UTF-8"?>
<svg id="Capa_2" data-name="Capa 2" xmlns="http://www.w3.org/2000/svg" viewBox="0 0 381.78 638">
  <defs>
    <style>
      .cls-1 {
        fill: #00569c;
      }
    </style>
  </defs>
  <g id="Capa_1-2" data-name="Capa 1">
    <g id="ADN_Logo" data-name="ADN Logo">
      <path class="cls-1" d="M352.53,381.6h-13.45v2.36c-.08,.48-.08,.97,0,1.45,4,5.81,17.08,4.54,17.08,12.9,0,3.63-2.18,3.45-2.18,5.27s0,0,1.27,0,8.72-2.18,8.72-8.9-8.36-11.99-11.99-13.81l.55,.73Z"/>
      <path class="cls-1" d="M376.33,451.74v1.27c-.12,31.91-8.57,63.23-24.53,90.86l-27.62-27.8c-24.52,50.49-75.43,82.84-131.56,83.59,.66-.14,1.34-.14,2,0,5.81,4,4.54,17.08,13.08,17.08,3.45,0,3.27-2.18,5.09-2.18s0,0,0,1.27-2.18,8.9-8.72,8.9-12.17-8.54-13.99-12.17v-12.9h-1.64c-.66-.14-1.34-.14-2,0-6,4-4.72,17.08-13.08,17.08-3.63,0-3.45-2.18-5.27-2.18s0,0,0,1.27,2.18,8.9,8.9,8.9,12.17-8.54,13.81-12.17v5.27c-1.25,3.02-3.5,5.52-6.36,7.09-.21,5.11,2.1,10,6.18,13.08-66.42-.26-127.65-35.93-160.64-93.58l27.8-28.35c-9.66-19.75-14.75-41.43-14.9-63.42v-68.51c.14,.66,.14,1.34,0,2-3.82,5.81-16.9,4.54-16.9,13.08,0,3.45,2,3.27,2,5.09s0,0-1.27,0-8.54-1.45-8.54-8.18,8.36-11.99,11.99-13.63h13.63v-.91c.11-.66,.11-1.34,0-2-3.82-5.81-16.9-4.54-16.9-12.9,0-3.63,2-3.45,2-5.27s0,0-1.27,0-8.72,2.18-8.72,8.9,8.36,11.99,11.99,13.81h-5.45c-3.35-1.65-5.95-4.51-7.27-8-5.17-.3-10.12,2.11-13.08,6.36h0V197.89l37.8,38.34H188.26c-.54,.15-1.1,.15-1.64,0-5.81-3.82-4.54-16.9-13.08-16.9-3.45,0-3.27,2.18-5.09,2.18s0,0,0-1.27,2.18-8.9,8.9-8.9,11.99,8.54,13.63,12.17v13.45h2.18c.54,.1,1.09,.1,1.64,0,5.81-3.82,4.54-16.9,13.08-16.9,3.45,0,3.27,2.18,5.09,2.18s0,0,0-1.27-2.18-8.9-8.9-8.9-11.99,8.54-13.63,11.99v-6c1.18-3,3.36-5.51,6.18-7.09,.38-5.09-1.97-10.01-6.18-12.9h185.35l-37.43,36.34h0v143.92c3.82-5.81,16.9-4.54,16.9-13.08,0-3.45-2.18-3.27-2.18-5.09s0,0,1.27,0,8.72,2.18,8.72,8.72-8.36,12.17-11.99,13.81h3.63c3.06,1.25,5.62,3.49,7.27,6.36,5.14,.38,10.08-2.05,12.9-6.36h-18.72c3.14-1.13,5.73-3.4,7.27-6.36,5.15-.2,10.06,2.19,13.08,6.36h0v69.41l-.18-.36Zm-185.53,185.53v-19.44c1.31,2.98,3.54,5.46,6.36,7.09,.37,5.18-2.05,10.17-6.36,13.08v-.73ZM5.45,382.51H25.62c-3.19,1.11-5.85,3.38-7.45,6.36-5.16,.26-10.1-2.14-13.08-6.36h.36ZM190.8,197.7v20.35c-1.18-3-3.36-5.51-6.18-7.09-.3-5.13,2.02-10.06,6.18-13.08v-.18Zm0-26.89c69.78,0,127.2,9.27,135.92,21.62H54.51c9.09-12.36,66.69-21.62,136.47-21.62h-.18Zm-136.29,1.64c-3.63,0-6.91-4.18-7.45-9.81-.55-5.63,2.18-10.54,5.81-10.9,3.63-.36,7.09,4.18,7.63,9.81,.55,5.63-2.18,10.54-6,10.9Zm21.44-47.61c1.45-1.82,2.51-3.92,3.09-6.18,1.62,1.76,3.53,3.23,5.63,4.36,2.25,.99,4.64,1.6,7.09,1.82-8,1.09-15.45,2.36-21.81,3.82,2.25-.83,4.29-2.13,6-3.82Zm40.16,35.07c-5.52,1.51-11.22-1.73-12.73-7.25-.07-.25-.13-.49-.17-.74-1.24-5.32,1.11-10.84,5.81-13.63,1.26-.77,2.7-1.21,4.18-1.27h0c4.89,.08,9.05,3.56,9.99,8.36,1.85,5.96-1.26,12.32-7.09,14.54Zm-15.63-36.34c5.9-2.6,9.98-8.13,10.72-14.54,.08-.85,.08-1.7,0-2.54h0c0-1.64,0-3.45,2-3.63h0c1.27,0,2.91,1.27,3.27,2.91,.38,1.13,.87,2.23,1.45,3.27,2.46,6.05,7.78,10.48,14.17,11.81-11.81,0-22.9,1.82-33.07,3.09h1.45v-.36Zm47.79-8.36c1.61-1.8,2.85-3.9,3.63-6.18,3.21,5.29,8.6,8.88,14.72,9.81l-26.71,1.27c3.22-.95,6.11-2.77,8.36-5.27v.36Zm57.24,30.16c-1.27,8.03-8.81,13.5-16.84,12.23-6.3-1-11.23-5.94-12.23-12.23,1.27-8.03,8.81-13.5,16.84-12.23,6.3,1,11.23,5.94,12.23,12.23Zm-18.17-36.34c1.08-2.46,1.64-5.12,1.64-7.81h0c0-3.09,0-4.36,2.36-4.36s2.36,1.27,2.36,4.36h0c-.18,2.7,.39,5.41,1.64,7.81,2.19,5.33,6.77,9.31,12.36,10.72h-33.25c5.65-1.36,10.32-5.35,12.54-10.72h.36Zm42.52,0c.89,2.12,2.11,4.09,3.63,5.81,2.28,2.45,5.16,4.27,8.36,5.27l-26.71-1.27c6.14-.88,11.55-4.49,14.72-9.81Zm42.7,50.88c-5.52,1.51-11.22-1.73-12.73-7.25-.07-.25-.13-.49-.17-.74-1.35-5.2,.77-10.68,5.27-13.63,1.24-.82,2.69-1.26,4.18-1.27h0c4.89,.08,9.05,3.56,9.99,8.36,1.75,5.95-1.32,12.25-7.09,14.54h.55Zm-8.72-50.88c.53-1.11,.96-2.26,1.27-3.45,0-1.64,2-3.09,3.45-2.91h0c1.45,0,2,2,2,3.63h0c-.08,.85-.08,1.7,0,2.54,.71,6.36,4.71,11.89,10.54,14.54h1.64c-10.18-1.27-21.44-2.36-33.07-3.09,6.26-1.25,11.54-5.44,14.17-11.27Zm33.25,14.17c2.17-1.12,4.13-2.6,5.81-4.36,.5,2.28,1.57,4.41,3.09,6.18,1.61,1.72,3.6,3.03,5.81,3.82-6.42-1.09-13.45-2.42-21.08-4,2.45-.2,4.85-.81,7.09-1.82l-.73,.18Zm23.26,38.52c0-5.63,3.82-9.99,7.45-9.81,3.63,.18,6.18,5.09,5.81,10.9-.36,5.81-3.82,9.99-7.45,9.81-3.63-.18-6.36-5.09-5.81-10.9Zm61.42,290.74V192.44h-52.52c2.48-1.35,4.07-3.9,4.18-6.72-.45-3.73-2.88-6.93-6.36-8.36,2.7-1.56,5.15-3.52,7.27-5.81,4.45-5.99,4.45-14.18,0-20.17h0c2.36-2,5.27-3.09,5.27-6.91,.24-.83,.24-1.71,0-2.54-3.6-5.35-4.47-12.08-2.36-18.17h0c5.09-6.72,1.64-11.45,4.54-19.44,.29-3.85,1.47-7.59,3.45-10.9,1.05-1.53,2.2-2.99,3.45-4.36,1.09-1.27,2.18-2.91,2.91-2.91,3.21,.09,6.21-1.58,7.81-4.36,1.24-3.38-.05-7.16-3.09-9.09h0c-.18-1.71,.59-3.38,2-4.36,6-5.45,12.17-5.45,13.45-9.81s-2.73-9.09,0-11.99c2.73-2.91,7.63-6.18,6.36-9.27-3.27-1.12-6.88,.16-8.72,3.09,.36-4-2-4-6-4,2.18,4,0,4.72-2.18,9.81-2-6-9.81-8.18-12.9-3.82,7.27,0,6.91,14.17,1.45,18.17-3.27,0-8.36-6.72-4.18-11.27-9.99,0-9.63,11.27-12.17,14.36,0-3.27-2.73-4.72-3.27-7.63-3.47,1.05-5.48,4.67-4.54,8.18-3.23-.9-6.7-.15-9.27,2-.51,3.16,.83,6.34,3.45,8.18-3.46,.97-5.54,4.5-4.72,8,3.27-1.45,6.54,0,10.54-2.91,0,2.54-4.54,4.72-5.45,7.45,1.66,1.14,3.51,2,5.45,2.54-2.06,1.65-2.8,4.45-1.82,6.91,3.71-3.58,9.01-4.95,13.99-3.63-1.17,1.98-2.21,4.05-3.09,6.18v1.45l-1.27-1.82-5.45,3.09c4.3,4.46,5.38,11.12,2.73,16.72-2.43,3.87-6.4,6.51-10.9,7.27-3.22,.39-6.46-.6-8.9-2.73-2.85-4.98-3.38-10.95-1.45-16.35,3.13-.37,5.47-3.03,5.45-6.18-.62-3.86-4.26-6.49-8.13-5.86-3.01,.49-5.38,2.85-5.86,5.86,0,2,.94,3.89,2.54,5.09-.93,5.83-4.3,10.99-9.27,14.17-3.23,1.46-6.94,1.46-10.18,0-4.01-1.78-6.73-5.62-7.09-9.99-.56-6.04,2.23-11.89,7.27-15.26l-3.82-4.54c-1.27,.82-2.43,1.8-3.45,2.91-2.73,2.54-4,2.54-3.45,0l2.73-18.17c7.63,1.27,13.63,7.45,12.9,11.45,2.33-1.29,3.58-3.92,3.09-6.54,1.99,.33,4.01,.33,6,0,1.09-2.73-1.45-7.09,0-9.09,1.45,4.54,4.91,5.09,6.72,8.18,2.89-2.12,3.54-6.17,1.45-9.09,3.29,.02,6.31-1.8,7.81-4.72,0-3.48-2.08-6.62-5.27-8,2.86-2.04,3.52-6.01,1.48-8.87,0-.01-.02-.02-.02-.03-2.18,2-5.09,2-7.63,4.54,0-4,4.36-10.54-3.27-16.54,0,6-7.63,8.18-10.54,6.91-2.54-5.45,2-15.81,8.18-12.72,0-5.09-3.27-8-8.9-4.18,.91-5.63,1.64-8.54,6-10.72-2.73-1.82-5.27-2.18-6.91,0,.83-3.1-.93-6.31-4-7.27-3.23,.18-5.82,2.76-6,6-.91-2.54-3.45-3.09-6.72-2,3.63,3.27,3.27,6.36,2.36,11.81-4-4.91-8.54-3.09-9.81,1.82,6.91-1.27,7.81,9.81,3.82,14.36-3.09,0-10.18-3.82-8-9.45-9.09,3.82-7.09,11.27-8.36,14.9-1.64-2.91-4.36-3.82-5.81-6.36-2.89,2.12-3.54,6.17-1.45,9.09-3.26,.06-6.25,1.86-7.81,4.72,.6,3.18,2.91,5.77,6,6.72-2.9,1.98-3.66,5.93-1.68,8.84,.02,.02,.03,.05,.05,.07,2.73-2.36,6.18-2,9.09-6,1.09,2.36-2.54,5.81-2.54,8.72,1.98,.36,4.01,.36,6,0-1.32,2.36-.95,5.31,.91,7.27,0-4.18,8.9-8.9,16.9-7.45l-2.73,18.17c0,3.27-1.82,3.27-4.18,0h0c-.89-1.53-2.06-2.89-3.45-4l-5.45,4.36c5.16,4.58,6.45,12.14,3.09,18.17-1.69,4.68-5.95,7.94-10.9,8.36-3.35,0-6.54-1.45-8.72-4-3.41-4.66-4.97-10.43-4.36-16.17,2.66-.79,4.5-3.22,4.54-6-.62-3.86-4.26-6.49-8.13-5.86-3.01,.49-5.38,2.85-5.86,5.86,.05,2.36,1.37,4.52,3.45,5.63-.32,4.02-1.5,7.92-3.45,11.45-2.7,4.75-7.8,7.62-13.27,7.45-4.69-.3-8.79-3.27-10.54-7.63-2.37-7.43,.26-15.55,6.54-20.17l-4.54-4.18-2.36,2.36h0c-2.54,2.73-5.27,3.82-5.81,0v-16.54c8.54,0,16.17,5.81,16.17,10.18,2.16-1.74,3.02-4.63,2.18-7.27,2.05,.27,4.13,.27,6.18,0,0-3.09-2.54-7.09-1.09-9.45,2.36,4.54,6,4.54,8.36,7.45,2.61-2.5,2.7-6.64,.2-9.25-.07-.07-.13-.13-.2-.2,3.37-.67,6.17-2.99,7.45-6.18-1.25-3.18-4.08-5.46-7.45-6,2.61-2.68,2.61-6.95,0-9.63-2,2.54-4.91,2.91-7.27,5.81,0-4,2.73-11.45-6.18-16.72,1.45,6.18-6.54,9.63-9.81,8.72-3.45-5.45,0-16.72,6.54-14.54,0-5.27-4.91-7.81-9.99-3.09,0-6,0-9.09,4.36-11.99-3.09-1.64-6-1.45-7.27,1.09,.36-3.31-1.83-6.37-5.09-7.09h0c-3.18,.8-5.28,3.83-4.91,7.09-1.82-2.54-4.54-2.73-7.81-1.09,4.36,2.91,4.54,6,4.54,11.99-5.09-4.72-9.45-2.18-9.99,3.09,7.09-2.18,9.81,9.09,6.54,14.54-3.27,0-11.45-2.54-9.99-8.72-8.9,5.27-5.63,12.72-6.18,16.72-2.18-2.91-5.27-3.27-7.27-5.81-2.66,2.59-2.71,6.85-.12,9.51,.04,.04,.08,.08,.12,.12-3.42,.42-6.3,2.75-7.45,6,1.19,3.25,4.04,5.61,7.45,6.18-2.61,2.5-2.7,6.64-.2,9.25,.07,.07,.13,.13,.2,.2,2.36-2.91,6.18-2.91,8.36-7.45,1.64,2.36-1.64,6.36-1.09,9.45,2.11,.27,4.25,.27,6.36,0-.96,2.64-.07,5.59,2.18,7.27,0-4.36,7.45-10.18,15.99-10.18v16.54c0,3.82-3.27,2.73-5.63,0h0l-3.27-3.27-4.54,4.18c6.55,4.43,9.49,12.58,7.27,20.17-1.78,4.34-5.86,7.29-10.54,7.63-5.52,.2-10.69-2.67-13.45-7.45-1.87-3.56-3.04-7.45-3.45-11.45,2.18-1.04,3.59-3.22,3.63-5.63,0-3.91-3.18-7.08-7.09-7.08-3.91,0-7.08,3.17-7.08,7.08,.1,2.76,1.92,5.16,4.54,6,.78,5.76-.79,11.59-4.36,16.17-2.09,2.56-5.23,4.03-8.54,4-4.99-.43-9.29-3.68-11.08-8.36-3.16-6.07-1.89-13.49,3.09-18.17l-5.09-3.09c-1.28,1.17-2.38,2.52-3.27,4h0c-2.36,3.45-3.82,3.45-4.36,0l-2.73-18.17c8.18-1.45,16.35,3.27,17.08,7.45,1.27-1.73,1.61-3.97,.91-6,1.92,.37,3.89,.37,5.81,0,0-2.91-3.63-6.36-2.36-8.72,2.73,4,6.18,3.63,8.9,6,1.97-2.88,1.33-6.8-1.45-8.9,3.05-1.02,5.33-3.58,6-6.72-1.68-2.84-4.7-4.62-8-4.72,2.17-2.76,1.69-6.76-1.07-8.93-.07-.05-.14-.1-.21-.15-1.64,2.54-4.36,3.45-6,6.36-1.09-3.63,0-11.08-8.36-14.9,2.36,5.63-4.72,9.99-8,9.45-4-4.54-3.09-15.63,4-14.36-1.27-6.54-5.81-8.9-10.18-3.45,0-5.45-1.09-8.54,2.54-11.81-2.54-1.09-5.81-.55-6.54,2-.27-3.26-2.91-5.83-6.18-6-2.99,1.04-4.66,4.22-3.82,7.27-1.64-2.18-4.18-1.82-7.09,0,4.54,2.18,5.09,5.09,6.18,10.72-5.63-3.82-9.27,0-9.09,4.18,6.36-3.09,10.72,7.27,8.36,12.72-2.54,1.27-11.08-.91-10.72-6.36-7.45,6-3.27,12.54-3.27,16.54-2.36-2.54-5.27-2.54-7.63-4.54-1.84,2.62-1.46,6.2,.91,8.36-3.14,.88-5.48,3.5-6,6.72,1.51,2.92,4.53,4.75,7.81,4.72-2.09,2.92-1.44,6.97,1.45,9.09,1.64-3.09,5.27-3.63,6.54-8.18,1.82,2,0,6.36,0,9.09,1.92,.34,3.89,.34,5.81,0-.49,2.62,.76,5.26,3.09,6.54,0-4,5.27-10.18,13.08-11.45l4.54,17.63q0,3.27-3.45,0c-1.08-1.12-2.3-2.1-3.63-2.91l-3.82,4.54c5.1,3.32,7.91,9.21,7.27,15.26-.31,4.39-3.05,8.24-7.09,9.99-3.23,1.46-6.94,1.46-10.18,0-4.9-3.25-8.25-8.38-9.27-14.17,1.65-1.18,2.65-3.06,2.73-5.09,0-3.91-3.17-7.09-7.09-7.09s-7.09,3.17-7.09,7.09c.06,3.12,2.37,5.73,5.45,6.18,1.96,5.38,1.5,11.34-1.27,16.35-2.51,2.14-5.81,3.13-9.09,2.73-4.45-.78-8.35-3.43-10.72-7.27-2.57-5.55-1.49-12.11,2.73-16.54l-5.63-3.09-1.27,1.82v-1.45c-1.05-2.32-2.46-4.47-4.18-6.36,4.98-1.36,10.3,.03,13.99,3.63,.96-2.42,.31-5.18-1.64-6.91,1.88-.56,3.66-1.42,5.27-2.54,0-2.73-5.63-4.91-5.45-7.45,4.18,2.91,7.27,1.45,10.72,2.91,.71-3.44-1.35-6.84-4.72-7.81,2.59-1.86,3.87-5.05,3.27-8.18-2.5-2.15-5.91-2.9-9.09-2,.72-3.48-1.33-6.95-4.72-8,0,2.91-2.73,4.36-3.27,7.63-2.36-3.09-2-13.63-12.17-14.36,4.36,4.54-.91,10.72-4.18,11.27-5.27-3.09-5.63-16.35,1.45-18.17-2.91-4.36-10.72-2.18-12.9,3.82-1.82-4.36-4.36-5.09-1.82-8.36-3.63,0-6,0-5.81,3.09-1.94-2.91-5.58-4.17-8.9-3.09-1.09,3.09,3.63,6.54,6.54,9.27s-1.09,7.45,0,11.99c1.09,4.54,7.27,4.36,13.45,9.81,1.6,1.26,2.42,3.25,2.18,5.27h0c-3.25,2.22-4.27,6.55-2.36,9.99,1.68,2.7,4.63,4.34,7.81,4.36,0,0,1.82,1.64,2.91,2.91,1.31,1.37,2.52,2.83,3.63,4.36,1.41,2,2.51,4.21,3.27,6.54,3.09,8,0,12.72,4.72,19.44h0c2.16,6.06,1.35,12.79-2.18,18.17-.22,.83-.22,1.71,0,2.54,0,3.82,3.09,4.91,5.27,6.91h0c-4.51,5.97-4.51,14.2,0,20.17,1.36,3.42,3.33,6.56,5.81,9.27-3.36,1.5-5.66,4.69-6,8.36,.11,2.82,1.7,5.38,4.18,6.72H0V453.01c4.6,105.38,93.75,187.07,199.13,182.47,98.93-4.32,178.15-83.54,182.47-182.47v-1.64l.18,1.09Z"/>
      <path class="cls-1" d="M190.62,536.42c-2.21,0-4,1.79-4,4,0,2.21,1.79,4,4,4s4-1.79,4-4h0c0-2.21-1.79-4-4-4Z"/>
      <path class="cls-1" d="M224.78,305.64c-11.01-2.98-22.4-4.26-33.8-3.82-11.45-.44-22.91,.84-33.98,3.82,11.2,2.09,22.59,3,33.98,2.73,11.33,.28,22.66-.63,33.8-2.73Z"/>
      <path class="cls-1" d="M181.71,540.42c.01-3.19,1.57-6.17,4.18-8-1.87-1.59-4.27-2.43-6.72-2.36h0c-2.45,.21-4.75,1.23-6.54,2.91h0c-1.97,1.91-3.08,4.53-3.09,7.27-.06,2.81,1.06,5.51,3.09,7.45h5.27c2.36-.02,4.63-.93,6.36-2.54-2.68-1.79-4.31-4.78-4.36-8l1.82,3.27Z"/>
      <path class="cls-1" d="M191.89,549.87h0c-2.41,3.06-5.82,5.18-9.63,6,3.09,1.12,6.35,1.67,9.63,1.64,3.41-.03,6.79-.64,9.99-1.82-3.8-.71-7.19-2.86-9.45-6l-.55,.18Z"/>
      <path class="cls-1" d="M191.34,530.97h0c2.37-2.99,5.71-5.05,9.45-5.81-3.18-1.26-6.58-1.88-9.99-1.82-3.28-.04-6.54,.52-9.63,1.64,3.84,.75,7.26,2.89,9.63,6h.55Z"/>
      <path class="cls-1" d="M206.25,530.24h-1.82c-2.78,.01-5.42,1.2-7.27,3.27,1.92,1.86,3.03,4.41,3.09,7.09-.02,2.72-1.21,5.31-3.27,7.09,1.97,2.24,4.83,3.5,7.81,3.45h1.09c.96,.19,1.95,.19,2.91,0h0c3.44-1.81,5.61-5.38,5.63-9.27-.04-5.13-3.83-9.46-8.9-10.18l.73-1.45Z"/>
      <path class="cls-1" d="M327.09,427.21c0,3.45-3.27,2-3.45,2,.85-.05,1.58-.63,1.82-1.45,0-1.64-2.54-2.18-4.18,0-3.33,3.05-8.5,2.82-11.55-.51-.22-.24-.43-.5-.62-.77-.49-1.59-.55-3.28-.18-4.91,0,0-2.73-3.63-6.91-.91-4.18,2.73-2,9.09,0,11.45s11.08,10.72,12.36,12.54c3.57,4.97,2.44,11.9-2.53,15.47-.57,.41-1.19,.77-1.83,1.07-4.73,2.11-9.95,2.86-15.08,2.18,.28,2.3,1.72,4.29,3.82,5.27,0,1.27-3.45,1.27-4,1.09s0,3.09,3.45,4.54c-.96,.52-2.12,.52-3.09,0,.35,3.5,1.21,6.92,2.54,10.18,.91,.91,4.54,.91,4.54,.91-.48,2.27,.29,4.62,2,6.18,0,.7-.56,1.28-1.26,1.28-.07,0-.13,0-.19-.01,.2,1.76,.82,3.44,1.82,4.91h-3.45c-1.09,0,0,4.91,0,5.45s-3.09,0-3.82,0-1.82,3.09-4.18,2.18c-2.36-.91-1.27,1.45-1.27,1.82s-1.27,0-1.45-3.27c-1.64,1.45-2.91,1.09-3.27,0-.36-1.09,0,0,0,1.09s-1.27,0-2-3.09-2.73,0-2.73,0c0,0-2.54-1.45,1.27-4.54,.91-1.45,1.09-2.54,1.45-2.91s0,0,1.09,0,2.36,0,2.91,.91,3.27,2.18,5.09-1.45c1.82-3.63,.91-3.09,.91-3.09l-1.82-1.27c-.11-.91-.11-1.82,0-2.73,0-1.64-6.54-7.45-8-8.18-4.41-1.68-8.67-3.75-12.72-6.18-.81-1.1-1.54-2.25-2.18-3.45-3.94,.55-7.95-.35-11.27-2.54-.38,1.59-1.44,2.92-2.91,3.63-1.27,0-2.73,4.72-3.27,5.27,.5,.72,.87,1.52,1.09,2.36,0,0,.91,.91-2,3.45-.67,.39-1.51,.39-2.18,0-.64-.27-1.36-.27-2,0,0,0-1.82,1.09-2.73,1.09h-4.36c-.9,.2-1.83,.2-2.73,0-1.45,0-2.36,.91-3.82,.91s-2-1.45-4,0-1.45-2.18-1.45-2.73-1.64-.91-.91-2.54-2.18,0-2.36,1.27c-.18,1.27-1.45-1.64,1.82-4-1.45,0,0-2.73,0-2.91s-2.18-.91-3.27,0,2-2.18,3.63-1.82,8.36-3.82,8.9,0,0,4.18,0,4.91c.89,1.25,2.29,2.04,3.82,2.18,1.45,0,5.81-1.09,5.81-8.36s0-11.08,2.73-13.45c2.73-2.36,3.27-1.64,3.45-3.09s0,0,0,0c0,0-3.45-3.45-3.27-5.45,.18-2-1.27,2.36-2.54,1.82-.08-2.27-1.14-4.39-2.91-5.81-1.09-1.09-1.45,0-1.45,.91s0,2.91,0,2.54l-1.45-1.64c-.75-.85-1.14-1.96-1.09-3.09h0c.02-.42,.02-.85,0-1.27,0-2.91-1.09-4-1.82-4.18s-1.64,0-1.82,0c-.49-.84-.49-1.88,0-2.73h-2.36s0-.91,1.09-1.82,0-1.09-1.64,0c-1.64,1.09-4.91,2.91-6.18,2.36-1.27-.55,0-1.45,0-1.45-1.15-.07-2.3-.07-3.45,0-1.64,0-2.18,0-3.45-1.27-1.27-1.27-1.45,0-3.27,0s-1.82-1.27-2.54-1.45-2.18,1.09-5.81-2.54h-1.45c-.36-.75-.36-1.62,0-2.36,0,0-3.09,0-2.73-3.82,.36-3.82-2.91-2.18-2.54-2.73s2.91-2,3.63-1.45,1.09-3.27-3.09-3.45c1.27-1.64,3.09-2.54,5.63,0,2.05-1.26,4.74-.61,6,1.44,.14,.24,.27,.48,.36,.74v3.45c.62,1.25,1.74,2.17,3.09,2.54h5.27c1.74,.14,3.45,.5,5.09,1.09,1.72,.47,3.54,.47,5.27,0,1.39-.62,2.73-1.35,4-2.18h0c-1.64-1.09-3.45-1.64-4.18-4.72s-2.73-2.18-3.45-5.45c-.73-3.27-1.27-2.91,0-4.36s-1.82-2.73,0-4.91c1.82-2.18-1.64-1.27,0-4,1.64-2.73-2-5.45,0-7.09-.41-1.03-1.19-1.87-2.18-2.36,0,0,.91-1.27,3.45,0s1.09-1.45,1.82-1.82l1.09-.91c.43-.66,.43-1.52,0-2.18,0,0,2.91-1.64,3.82,2.18,1.27-1.09,1.82,0,2.36,0s0-2.18-1.27-2.91c1.7-.6,3.57,.28,4.18,1.99,.11,.3,.17,.61,.18,.92,0,0,3.45,4-2.54,7.63-2.54,1.64,0,5.63,0,5.81s0,4.36,.91,6.36c1.68,2.52,3.84,4.68,6.36,6.36h1.45c.31-.52,.14-1.19-.38-1.49-.21-.13-.46-.18-.71-.14,0,0,0-1.09,2-1.09,1.25,.3,2.55-.21,3.27-1.27,2.16-1.88,4.95-2.86,7.81-2.73h6.36c.91,.03,1.76-.46,2.18-1.27,.09-.6,.09-1.21,0-1.82,.09-.36,.09-.73,0-1.09,0-.91-1.27,0-1.64,0s0,1.45-1.45,1.45-1.09-1.27-1.82-1.09-1.64,.91-2.18,.91-1.45-1.27-2.18,0c-1.12,.65-2.51,.65-3.63,0h1.45c1.06-1.31,1.75-2.88,2-4.54,0-1.27,0-1.09,0-1.09,0,0,0,1.64,1.27,1.64s1.45-1.09,1.82-1.45,0,0,.91,0c.58,.73,1.44,1.18,2.36,1.27,0,0,4,0,3.45-4.18s-2.73-1.45-3.09-1.45h-2.18c-.94-.11-1.82,.52-2,1.45,0,0-1.45,0-2.18-2.54-.73-2.54,1.45-4.18,1.45-4.72s-2.36,0-2.73,0,0-1.64,1.09-2.18c2.02-1.82,4.36-3.24,6.91-4.18,1.09,0,0-1.82,0-2.18s1.45,0,2,.91,1.09,0,7.09-2c1.64-1.27,0-2.54-1.27-1.64s0-2.54,2.73-2.36,2.18,1.82,2.54,2.36,1.09,0,1.45,0c.89-.76,1.31-1.94,1.09-3.09,.3-.4,.87-.48,1.27-.18,.07,.05,.13,.11,.18,.18v-1.64c0-.55,1.82,0,2.91,3.27,1.09,3.27,1.09,0,2,0s0,0,0-1.09c.8-.64,1.93-.64,2.73,0-.45,.4-.49,1.09-.1,1.54,.03,.03,.06,.07,.1,.1,.42,1.19,1.03,2.29,1.82,3.27h2.36c.36,0,0,2.91,2.91,2.73s-1.82,2.18-2.18,2.36,1.09,0,1.45,1.09,0,4.54,1.45,5.81,1.82,.91,2,0,0,1.82-3.82,2c-3.82,.18,0,1.64,0,1.64,1.57,.98,2.69,2.55,3.09,4.36,.66,3.32-.28,6.75-2.54,9.27-2.91,4-2.91,5.45-1.09,6.54,.7,.85,1.96,.98,2.81,.28,.1-.08,.19-.18,.28-.28,0,0,0,2.54-3.27,3.45-1.37,.24-2.78-.16-3.82-1.09-.11,1.94-.11,3.88,0,5.81-.13,2.82-1.81,5.34-4.36,6.54-4.18,2.36-2.54,4.91-2.18,5.63s-4.36,1.09-5.09-4h0c-2.56,2.06-5.54,3.55-8.72,4.36-.23,.89-.23,1.83,0,2.73,.22,2.8,.83,5.55,1.82,8.18v1.09h0v.91h0c1.85,3.4,4.89,5.99,8.54,7.27,5.16,1.11,9.48,4.62,11.63,9.45,1.34,2.79,4.17,4.56,7.27,4.54,4.59,.51,8.72-2.8,9.23-7.39,.33-2.99-.97-5.93-3.41-7.69-1.82-2.18-13.27-9.63-12.9-18.17-4.62-3.81-5.27-10.65-1.45-15.26,3.81-4.62,10.65-5.27,15.26-1.45h0c.56,.32,1.25,.32,1.82,0,3.44-2.44,8.2-1.64,10.64,1.8,.73,1.03,1.19,2.22,1.35,3.47h1.27s5.27,0,4.36,4.36l-1.27-.36Zm-135.74,136.1c-14.2,1.62-27.1-8.38-29.07-22.53,.86-10.18,8.21-18.64,18.17-20.9,.08-1.4,1.15-2.55,2.54-2.73h.91l1.45-.91h0v-141.19c-.85-.05-1.63-.44-2.18-1.09-.09-.54-.09-1.09,0-1.64h-4.91v-5.09h-5.09v5.09h-5.27v-15.63h5.27v5.27h5.09v-5.27h5.27v-5.09h-5.27v-5.27h-5.09v5.27h-5.27v-15.63h5.27v5.09h5.09v-5.09h5.27c0-1.44,1.11-2.63,2.54-2.73v-6.18c0-1.09,2-2.36,5.09-2.36s5.27,1.09,5.27,2.36v188.62h0c.49,.2,.93,.51,1.27,.91h0c1.43,.16,2.56,1.29,2.73,2.73,9.96,2.26,17.32,10.72,18.17,20.9-1.77,13.57-13.58,23.57-27.26,23.08Zm-32.16-94.49s-3.45,0-3.09,0,.91,2.36,0,2.91c3.27,2.36,2,4.36,1.82,4s-3.09-2.91-2.36-1.27c.73,1.64-1.09,2.18-1.09,2.54s0,3.09-1.27,2.73-3.09,0-4.18,0-2.18-1.09-3.63-.91c-.96,.2-1.95,.2-2.91,0h-4.18c-.91,0-2-1.09-2.91-1.09-.57-.29-1.25-.29-1.82,0-.74,.39-1.62,.39-2.36,0-2.91-2.54-2-3.09-2-3.45,.31-.81,.67-1.6,1.09-2.36,0,0-3.09-2-3.09-2.73-1.52-.69-2.65-2.03-3.09-3.63-3.26,2.18-7.2,3.08-11.08,2.54-.64,1.2-1.37,2.36-2.18,3.45-3.68,3.4-7.63,6.5-11.81,9.27-1.45,0-8.18,6.54-8,8.18,.22,.9,.22,1.83,0,2.73l-1.82,1.27,1.09,3.09c1.09,3.09,4.54,2.54,5.09,1.45s2.73-.91,2.91-.91h1.09c.4,1.01,.89,1.98,1.45,2.91,3.82,3.09,1.09,4.54,1.09,4.54,0,0,0-2.18-2.54,0s-2.18,3.45-2,3.09,0-1.64-.91-1.09-1.64,0-3.09,0c-1.09,2.73-2.54,2.73-2.54,2.73,0,0,0-2.54-1.45-1.82s-2.54,0-4-2.18c-1.45-2.18-3.82,1.09-3.82,0v-5.45h-2.18s-1.64,0-1.27,0c.99-1.45,1.56-3.15,1.64-4.91-.59,.11-1.16-.28-1.27-.87-.02-.13-.02-.27,0-.4,1.72-1.56,2.42-3.94,1.82-6.18,0,0,3.63,0,4.54-.91,1.4-3.24,2.32-6.67,2.73-10.18-.96,.52-2.12,.52-3.09,0,3.27-1.45,3.63-4.91,3.27-4.54s-3.27,0-4-1.09c3.45-1.64,4.18-5.45,3.82-5.27-5.22,.14-10.38-1.19-14.9-3.82-5.6-2.71-7.94-9.45-5.23-15.05,.25-.52,.54-1.01,.86-1.48,1.45-1.82,11.81-11.81,12.54-12.54s4.91-8.72,0-11.45c-1.94-1.74-4.93-1.57-6.67,.37-.15,.17-.29,.35-.42,.54-.1,1.53-.67,2.99-1.64,4.18-2.63,3.67-7.73,4.52-11.41,1.89-.27-.19-.52-.4-.77-.62-1.45-1.45-4.36-.91-4,0s1.64,1.45,1.82,1.45-3.27,2.18-3.27-1.27,4.54-4.36,4.54-4.36c.4,.2,.87,.2,1.27,0-.22-4.11,2.93-7.62,7.04-7.84,1.94-.1,3.85,.56,5.32,1.84,.63,.32,1.37,.32,2,0,4.63-1.93,9.95,.26,11.88,4.89,.58,1.38,.8,2.89,.66,4.38,0,7.81-11.08,15.26-12.72,18.17-3.73,2.72-4.55,7.95-1.83,11.68,1.72,2.36,4.55,3.65,7.46,3.4,3.14,.17,6.05-1.65,7.27-4.54,2.38-4.72,6.69-8.17,11.81-9.45,3.61-1.34,6.64-3.91,8.54-7.27h0v-.91h0v-1.09c.99-2.63,1.6-5.38,1.82-8.18,.32-.88,.32-1.85,0-2.73-3.2-.78-6.18-2.27-8.72-4.36h0c0,5.09-5.45,4.72-5.09,4s2.18-3.27-2.18-5.63c-2.55-1.21-4.23-3.72-4.36-6.54,0,0,0-6,0-5.81-1.09,.96-2.57,1.36-4,1.09-3.63,0-3.27-3.63-3.09-3.45,.7,.85,1.96,.98,2.81,.28,.1-.08,.19-.18,.28-.28,1.64-1.09,1.64-2.54-1.27-6.54-2.22-2.53-3.1-5.98-2.36-9.27,.34-1.84,1.47-3.43,3.09-4.36,0,0,1.82-1.45,0-1.64-4.36,0-4.18-2.18-3.82-2s0,0,1.82,0,1.09-4.72,1.64-5.81,1.64,0,1.45-1.09-2.18-1.27-2.18-2.36,2.54-2.18,2.91-2.73,1.64,0,2.18,0c1.34-1.44,2.11-3.31,2.18-5.27,.45-.4,.49-1.09,.1-1.54-.03-.03-.06-.07-.1-.1,.87-.61,2.03-.61,2.91,0,0,0,0,1.27,0,1.09s1.45,.91,2,0,2.91-3.63,2.73-3.27,0,2,0,1.64c.47-.4,1.16-.4,1.64,0-.35,1.12,.01,2.34,.91,3.09h1.64c.36,0,0-2.18,2.36-2.36,2.36-.18,4,1.45,4,2.36s-3.09,0-1.27,1.64c6,2.73,6.54,2,7.09,2s2.18-1.45,2-.91,0,1.64,0,2.18c2.59,.86,4.95,2.29,6.91,4.18,0,0,1.45,1.27,1.09,2.18s-2.73,0-2.73,0c0,0,2.18,2.18,1.45,4.72-.73,2.54-2,2.91-2,2.54s0-1.45-2.18-1.45h-2.18c-.73,0-2.91,0-3.09,1.45s2.73,4.18,3.63,4.18c.86-.13,1.64-.59,2.18-1.27h1.09c1.09,0,1.09,1.45,1.82,1.45s1.27-1.64,1.27-1.64v1.09c.19,1.65,.82,3.22,1.82,4.54,0,0,2.36,0,1.45,0-1.06,.66-2.4,.66-3.45,0h-2.18c-.55,0-1.45-.91-2.18-.91s-1.27,1.09-1.82,1.09-1.09-.91-1.45-1.45-1.45,0-1.64,0v1.09c-.09,.6-.09,1.21,0,1.82,.53,.78,1.41,1.26,2.36,1.27h6.18c2.86-.17,5.68,.81,7.81,2.73,.81,1.05,2.15,1.55,3.45,1.27,1.45,0,2.73,1.09,2,1.09-.57-.2-1.19,.09-1.39,.66-.12,.33-.07,.69,.12,.98h1.45c2.51-1.63,4.63-3.8,6.18-6.36,1.27-2,0-3.63,1.09-6.36,1.09-2.73,2.36-4.18,0-5.81-6.18-3.63-3.27-6.91-2.54-7.63,1.34-.72,3-.41,4,.73-1.45,0-1.64,2.91-1.27,2.91h2.36c1.09-3.82,3.09-2.73,4-2.18-.8,.4-1.18,1.33-.91,2.18l1.09,.91s0,1.82,1.82,1.82,3.63,0,3.45,0c-.99,.5-1.77,1.34-2.18,2.36,1.27,2.19,1.27,4.89,0,7.09,1.64,2.73,0,2.36,0,4s-1.27,3.82-.91,4.91,0,1.09,0,4.36-2,3.63-3.63,5.45-2.36,3.63-4.18,4.72h0c1.33,.83,2.73,1.56,4.18,2.18,1.66,.47,3.43,.47,5.09,0,1.7-.58,3.47-.95,5.27-1.09,1.75,.28,3.52,.28,5.27,0,1.31-.43,2.42-1.34,3.09-2.54v-3.45c.85-2.25,3.36-3.39,5.62-2.54,.26,.1,.51,.22,.74,.36,2.36-2.36,4.36-1.45,5.45,0-4,0-3.09,3.45-3.09,3.45,0,0,2.54,0,3.63,1.45s-3.09-.91-2.54,2.73c.55,3.63-2.18,3.09-2.73,3.82,.39,.74,.39,1.62,0,2.36-.47-.4-1.16-.4-1.64,0-3.63,3.63-4.18,2.54-5.63,2.54s-1.27,1.27-2.73,1.45-2.54-.91-3.27,0-1.64,1.45-3.27,1.27c-1.21-.07-2.42-.07-3.63,0-1.27,0,0,1.45,0,1.45,0,0-3.27-1.82-6.18-2.36-2.91-.55-1.82,0-1.45,0s1.09,1.27,1.09,1.82-2.54,0-2.36,0,1.27,1.27,0,2.73c-1.27,1.45-.91,0-1.64,0s-1.27,1.27-2,4.18,0,0,0,1.27,0,0,0,0h0c-.02,1.15-.47,2.26-1.27,3.09l-1.27,1.64v-2.54c0-.91,0-2-1.45-.91-1.64,1.52-2.67,3.59-2.91,5.81-1.09,0-2.54-3.82-2.36-1.82s-2.36,3.82-3.27,5.45h0c0,1.45,1.64,1.27,3.27,3.09s2.73,6,2.73,13.45,4.54,8.36,6,8.36c1.31,1.49,3.32,2.18,5.27,1.82v-4.91c0-2.54,8.72-2,8.72,0s4.54,2,3.63,1.82l-.18-.55Zm-30.53-81.77c1.45-.06,2.85-.57,4-1.45h0l-2.73,1.27c-2.73,1.27-4,1.09-6.72,0-2.03-.47-4.15-.47-6.18,0-1.27,.16-2.55,.16-3.82,0h0c-.08-.36-.08-.73,0-1.09,1.68,.38,3.41,.38,5.09,0,1.77-.43,3.65-.03,5.09,1.09,1.25,.62,2.61,.99,4,1.09l1.27-.91Zm10.72-122.29c.76-.55,1.78-.55,2.54,0,0,0,0-1.09,1.45-1.09s0,1.45,0,2.73c0-1.64,2.73-2.18,3.63-1.09-2,0-1.82,4,0,4.91,1.82,.91,2.36-1.82,1.09-3.09,2.73,0,2.73,3.09,3.27,4s.91-1.45,.91-2.18c.89,.14,1.5,.98,1.35,1.88-.02,.1-.04,.21-.08,.3,.79-.45,1.76-.45,2.54,0v2.18c.89,.14,1.5,.98,1.35,1.88-.02,.1-.04,.21-.08,.3,0,0-1.82,0-2.91-.91s1.27,1.45,1.45,2.18h-1.45c.43,.53,.43,1.29,0,1.82-1.19-.65-2.63-.65-3.82,0l.91,1.64h1.64c-.94,1.37-.94,3.18,0,4.54,.59,1.13,1.66,1.94,2.91,2.18,.88,.07,1.75-.26,2.36-.91,.71-1.37,.71-2.99,0-4.36-.82-.23-1.41-.96-1.45-1.82,0-1.1,.89-2,2-2s2,.89,2,2h0c.17,.47,.17,.98,0,1.45,0,2,1.27,3.27,2.54,3.82,.87,.37,1.86,.37,2.73,0,1.1-.58,1.85-1.67,2-2.91,.15-1.65-.62-3.26-2-4.18l.91-1.27,1.09,.91s1.09,0,0,0v-4.91c-2.18,0-3.82,2.18-3.63,3.27-.37-.55-.37-1.27,0-1.82h-3.09v-2.54c0-.55-1.27,1.45-1.82,2.36-.69-.71-.69-1.84,0-2.54-.64,.83-1.69,1.25-2.73,1.09,.12-.88,.77-1.6,1.64-1.82-.69-.71-.69-1.84,0-2.54,0,0,1.45,0,2,1.27s-1.09-2.91,0-4.54c0,1.64,2.18,2.18,2.91,1.82s0-4.36-2.18-3.45,.91-2.18,2.36-1.09c0-1.64,0-2.36-1.64-3.09,.56-.53,1.44-.53,2,0-.24-.85,.25-1.74,1.09-2,.87,.08,1.55,.77,1.64,1.64h1.82c1.82,0-.91,1.82,0,3.27,.28-.75,1.12-1.14,1.87-.86,.4,.15,.71,.46,.86,.86-1.82,0-2.18,2.73-1.09,4s2.91-1.09,2.18-2.73c2.54,1.09,2,3.09,2.36,4.18s1.27-1.09,1.64-1.64c.65,.62,.67,1.66,.05,2.31-.02,.02-.03,.03-.05,.05,.88,.07,1.69,.54,2.18,1.27-.23,.87-.82,1.6-1.64,2,.65,.62,.67,1.66,.05,2.31-.02,.02-.03,.03-.05,.05,0,0-1.64,0-2.36-1.64s0,1.64,0,2.36h-1.64v1.82c0,.55-2.36-2.36-4.72-2v4.91q0,.91,1.09,0l.91-1.09,1.27,1.09c-.93,1.44-.93,3.29,0,4.72,.49,1.32,1.69,2.24,3.09,2.36,.89-.06,1.74-.45,2.36-1.09,.97-1.3,1.43-2.92,1.27-4.54-.72-.23-1.23-.88-1.27-1.64,0-.9,.72-1.64,1.63-1.65,.06,0,.13,0,.19,.01,1-.1,1.89,.62,2,1.62,0,0,0,.01,0,.02-.01,.71-.44,1.35-1.09,1.64,.11,1.1,.48,2.16,1.09,3.09,.73,1.33,2.12,2.17,3.63,2.18,1.29-.16,2.4-.99,2.91-2.18,.72-2.07-.02-4.37-1.82-5.63l1.27-1.09,.91,.91s1.27,1.09,1.45,0v-4.54c-2.36,0-4.36,1.64-4.36,2.73-.45-.59-.45-1.41,0-2h-1.82v-2.54c0-.55-1.27,.91-1.27,2-.61-.74-.61-1.81,0-2.54-.87-.23-1.6-.82-2-1.64,.33-.9,1.07-1.58,2-1.82-.61-.74-.61-1.81,0-2.54,0,0,1.45,0,2,1.45s0-3.09,1.64-4.54c0,1.82,1.82,2.73,2.73,2.36s0-4.54-1.64-4,1.27-2,2.73,0c.2-1.29-.28-2.6-1.27-3.45h2c-.32-.96,.05-2.01,.91-2.54h0c.89,.25,1.49,1.08,1.45,2h2c.91,0-1.27,1.82-1.27,3.45,1.45-1.27,2.54,0,2.73,0s-2.73,2.54-1.82,4,3.09,0,2.73-2.36c2.36,1.45,1.64,3.45,1.64,4.54s1.45,0,2-1.45c.7,.57,.81,1.6,.24,2.3-.07,.09-.15,.17-.24,.24,.96,.17,1.74,.88,2,1.82-.35,.85-1.1,1.46-2,1.64,.7,.57,.81,1.6,.24,2.3-.07,.09-.15,.17-.24,.24,0,0-1.64,0-2.18-2-.55-2,0,1.82,0,2.54h-1.64c.4,.61,.4,1.39,0,2,0-1.09-2.18-2.73-4.54-2.73v4.54c0,1.09,0,0,1.64,0s0,0,0-.91l1.27,1.09c-2,1.82-2.73,3.82-1.82,5.63,.41,1.19,1.47,2.04,2.73,2.18,1.57,.01,3.03-.82,3.82-2.18,.46-.98,.77-2.02,.91-3.09-.56-.36-.9-.97-.91-1.64,0-.9,.72-1.64,1.63-1.65,.06,0,.13,0,.19,.01,1-.1,1.89,.62,2,1.62,0,0,0,.01,0,.02-.04,.76-.55,1.41-1.27,1.64-.16,1.62,.3,3.24,1.27,4.54,1.15,1.26,3.1,1.36,4.36,.21,.44-.4,.75-.91,.91-1.48,1.03-1.41,1.03-3.32,0-4.72l1.09-1.09,.91,1.09c0,.91,1.09,.91,1.27,0v-4.91c-1.84-.37-3.71,.42-4.72,2-.37-.55-.37-1.27,0-1.82h-1.64s.91-1.64,0-2.36c-.91-.73-1.82,0-2.54,1.64-.65-.62-.67-1.66-.05-2.31,.02-.02,.03-.03,.05-.05-1.09,0-1.45-.91-1.64-2,.46-.69,1.18-1.15,2-1.27-.58-.68-.58-1.68,0-2.36,0,0,1.09,.91,1.45,1.64s0-3.09,2.36-4.18c-.3,1.17,.4,2.36,1.56,2.66,.2,.05,.41,.08,.62,.07,1.09-1.27,0-4.36-1.09-4,.28-.75,1.12-1.14,1.87-.86,.4,.15,.71,.46,.86,.86v-3.27c0-.91,1.64,0,1.82,0,0-.9,.73-1.64,1.64-1.64h0c.79,.33,1.24,1.16,1.09,2h1.82c.73,0-1.27,1.45-1.64,3.09,1.64-1.09,2.54,0,2.54,1.09s-2.91,2-2.36,3.45,3.09,0,2.91-1.82c2.18,1.64,0,3.45,0,4.54s1.45,0,2.18-1.27c.61,.74,.61,1.81,0,2.54,.84,.25,1.47,.95,1.64,1.82-.56,.66-1.33,1.11-2.18,1.27,.55,.76,.55,1.78,0,2.54,0,0-1.45-1.09-1.82-2.36s0,1.82,0,2.54h-.55c.37,.55,.37,1.27,0,1.82,0-1.09-1.45-2.91-3.45-3.27l-.91,4.91h1.09v-.91l1.09,1.27c-1.38,.92-2.15,2.53-2,4.18,.16,1.18,.82,2.24,1.82,2.91,.93,.38,1.98,.38,2.91,0,1.35-.85,2.28-2.24,2.54-3.82-.23-.46-.23-1,0-1.45,.09-1,.98-1.73,1.98-1.64,0,0,.01,0,.02,0,.94,0,1.72,.7,1.82,1.64,.02,.88-.59,1.64-1.45,1.82-.71,1.37-.71,2.99,0,4.36,.7,.62,1.61,.94,2.54,.91,1.2-.34,2.24-1.12,2.91-2.18,.94-1.37,.94-3.18,0-4.54h1.45c.23-.58,.54-1.13,.91-1.64-1.25-.65-2.74-.65-4,0-.43-.53-.43-1.29,0-1.82h-1.45s1.45-1.45,1.45-2.18-2,0-2.91,.91c-.15-.94,.38-1.85,1.27-2.18-.62-.55-.95-1.35-.91-2.18,.8-.42,1.75-.42,2.54,0-.23-.95,.33-1.91,1.27-2.18,0,0,0,1.27,.91,2.18s0-3.82,3.27-4c-1.09,1.27,0,2.91,1.27,3.09s1.45-4.54,0-4.91,2.91,0,3.45,1.09c0-1.27,1.27-1.45,0-2.73-1.27-1.27,1.64,0,1.64,1.09,.7-.52,1.66-.52,2.36,0,0,0-.91,1.64-1.82,2.54s0,2,0,3.27-2,1.27-3.63,2.73,0,0,0,1.09h0c.74,.83,.74,2.08,0,2.91-.47,.74-1.31,1.16-2.18,1.09h0l-.91,1.09-1.09,1.82c0,2.18,0,3.63-1.27,5.45h0c-.81,1.66-.81,3.61,0,5.27h0c0,1.09,0,1.27-1.45,1.82h0c1.24,1.67,1.24,3.96,0,5.63l-2,1.64c.9,.38,1.52,1.21,1.64,2.18,.01,.76-.41,1.47-1.09,1.82h0c-2.18,.73-4.44,1.21-6.72,1.45-10.18,1.42-20.44,2.15-30.71,2.18-10.02,.13-20.04-.42-29.98-1.64-2.3,.22-4.61,.22-6.91,0h0c-.72-.33-1.21-1.02-1.27-1.82,.19-.99,.87-1.82,1.82-2.18l-2-1.64c-1.19-1.69-1.19-3.94,0-5.63h0s-1.45,0-1.45-1.82h0c.81-1.66,.81-3.61,0-5.27h0c-1.45-1.82,0-3.27-1.27-5.45-.19-.66-.5-1.27-.91-1.82v-1.09h-.91c-1.35,.55-2.9-.1-3.45-1.45-.55-1.35,.1-2.9,1.45-3.45h0c-.67-.85-.67-2.05,0-2.91h0c.37-.55,.37-1.27,0-1.82-1.64-1.45-3.45-1.45-3.82-2.73-.36-1.27,.91-2.54,0-3.27s-2-1.82-1.82-2.54l-.36,.73Zm109.03,120.29h0c1.17,.85,2.55,1.36,4,1.45,1.45-.1,2.87-.47,4.18-1.09,1.42-1.17,3.32-1.58,5.09-1.09,1.61,.38,3.29,.38,4.91,0v1.09h0c-1.21,.16-2.43,.16-3.63,0-2.09-.47-4.27-.47-6.36,0-2.73,1.27-2.91,1.09-6.54,0-1.07-.15-2.07-.59-2.91-1.27h0l1.27,.91Zm84.86,66.33V240.95H48.7v211.7h0c0,78.58,63.7,142.28,142.28,142.28s142.28-63.7,142.28-142.28v-1.27Z"/>
    </g>
  </g>
</svg>